<?xml version="1.0" encoding="UTF-8"?>
<!DOCTYPE svg PUBLIC "-//W3C//DTD SVG 1.1//EN" "http://www.w3.org/Graphics/SVG/1.1/DTD/svg11.dtd">
<!-- Creator: CorelDRAW 2019 (64-Bit) -->
<svg xmlns="http://www.w3.org/2000/svg" xml:space="preserve" width="109.999mm" height="112.23mm" version="1.1" style="shape-rendering:geometricPrecision; text-rendering:geometricPrecision; image-rendering:optimizeQuality; fill-rule:evenodd; clip-rule:evenodd"
viewBox="0 0 2655.53 2709.38"
 xmlns:xlink="http://www.w3.org/1999/xlink">
 <defs>
  <style type="text/css">
   <![CDATA[
    .fil1 {fill:#373435}
    .fil0 {fill:#F58634}
   ]]>
  </style>
 </defs>
 <g id="Layer_x0020_1">
  <metadata id="CorelCorpID_0Corel-Layer"/>
  <g id="_1712000405280">
   <path class="fil0" d="M1345.89 0l530.16 523.11c-437.25,165.96 -844.42,387.64 -1162.31,645.99l-272.54 -276.12 904.7 -892.97z"/>
   <path class="fil1" d="M1295.6 1751.71l52.05 51.92 914.9 -917.86 -174.72 -174.29c-374.7,314.21 -673.11,650.85 -792.22,1040.23z"/>
   <path class="fil0" d="M2268.55 480.13c-550.58,87.84 -1034.7,358.4 -1465.04,776.87l193.72 181.14c242.31,-403.28 668.31,-720.06 1271.33,-958.01z"/>
   <path class="fil1" d="M2314.64 544.44c-510.77,121.96 -890.73,414.95 -1290.33,929.04l173.48 171.55c239.47,-443.08 515.79,-842.61 1116.85,-1100.6z"/>
   <path class="fil1" d="M-0 2234.75l275.79 0c-146.58,180.83 53.93,336.64 510.22,286.18l1.69 -122.86 -398.17 -6.95 136.48 -156.37 494.7 0 0 466.28c-151.4,0 -436.22,20.97 -638.94,-3.58 -281.18,-34.06 -381.77,-178.79 -381.77,-462.7z"/>
   <path class="fil1" d="M1609.24 2234.05l244.51 -2.13c-8.24,51.34 86.07,22.87 176.33,29.72l403.66 -2.18c57.16,-0.31 76.29,-6.83 126.38,27.28 56.91,38.75 86.17,99.09 95.4,175.47 -11.19,147.12 -79.79,225.34 -204.71,235.98l-881.39 0 170.59 -187.65c199.96,1.33 399.92,2.65 599.88,3.98 76.68,0.51 104.42,-84.01 29.03,-116.01 -390.86,7.04 -736.11,26.3 -759.7,-164.46z"/>
   <path class="fil0" d="M1202.67 2683.98l235.98 5.69 0 -543.05 1026.39 -8.53 170.59 -201.87 -2194.94 2.84c-176.65,7.05 -293.45,84.84 -386.67,190.49l1142.96 19.9 5.69 534.52z"/>
  </g>
 </g>
</svg>
