<?xml version="1.0" encoding="utf-8"?>
<!-- Generator: Adobe Illustrator 27.5.0, SVG Export Plug-In . SVG Version: 6.00 Build 0)  -->
<svg version="1.1" xmlns="http://www.w3.org/2000/svg" xmlns:xlink="http://www.w3.org/1999/xlink" x="0px" y="0px"
	 viewBox="0 0 778 500" style="enable-background:new 0 0 778 500;" xml:space="preserve">
<g id="BACKGROUND">
</g>
<g id="OBJECTS">
	<rect x="0.367" style="fill:#FFFAF5;" width="777.591" height="500"/>
	<path style="opacity:0.31;fill:#CFCFFF;" d="M646.416,206.974v-51.096c0-59.835-48.956-108.791-108.791-108.791h0
		c-59.835,0-108.791,48.956-108.791,108.791v0c0,13.689-12.546,23.895-25.966,21.192c-5.124-1.032-10.423-1.566-15.844-1.549
		c-43.49,0.14-79.069,36.457-79.069,79.948v0c0,12.591-10.207,22.799-22.799,22.799H135.326
		c-61.289,0-111.435,50.146-111.435,111.435v0c0,31.158,12.966,59.431,33.761,79.704h396.832c0.157-0.251,0.314-0.502,0.468-0.755
		h109.114h78.571h104.258V273.349c0-23.57-19.107-42.678-42.678-42.678h-34.105C657.026,230.672,646.416,220.062,646.416,206.974z"
		/>
	<g>
		
			<rect x="490.397" y="125.204" style="fill:none;stroke:#8A8AFF;stroke-width:2.5442;stroke-linecap:round;stroke-linejoin:round;stroke-miterlimit:10;" width="34.79" height="299.644"/>
		
			<line style="fill:none;stroke:#8A8AFF;stroke-width:2.5442;stroke-linecap:round;stroke-linejoin:round;stroke-miterlimit:10;" x1="491.799" y1="129.693" x2="523.784" y2="161.678"/>
		
			<line style="fill:none;stroke:#8A8AFF;stroke-width:2.5442;stroke-linecap:round;stroke-linejoin:round;stroke-miterlimit:10;" x1="491.799" y1="160.93" x2="523.784" y2="192.914"/>
		
			<line style="fill:none;stroke:#8A8AFF;stroke-width:2.5442;stroke-linecap:round;stroke-linejoin:round;stroke-miterlimit:10;" x1="492.08" y1="195.907" x2="524.065" y2="227.891"/>
		
			<line style="fill:none;stroke:#8A8AFF;stroke-width:2.5442;stroke-linecap:round;stroke-linejoin:round;stroke-miterlimit:10;" x1="491.799" y1="229.013" x2="523.784" y2="260.998"/>
		
			<line style="fill:none;stroke:#8A8AFF;stroke-width:2.5442;stroke-linecap:round;stroke-linejoin:round;stroke-miterlimit:10;" x1="491.799" y1="264.931" x2="523.784" y2="296.915"/>
		
			<line style="fill:none;stroke:#8A8AFF;stroke-width:2.5442;stroke-linecap:round;stroke-linejoin:round;stroke-miterlimit:10;" x1="491.799" y1="295.227" x2="523.784" y2="327.211"/>
		
			<line style="fill:none;stroke:#8A8AFF;stroke-width:2.5442;stroke-linecap:round;stroke-linejoin:round;stroke-miterlimit:10;" x1="492.08" y1="329.527" x2="524.065" y2="361.511"/>
		
			<line style="fill:none;stroke:#8A8AFF;stroke-width:2.5442;stroke-linecap:round;stroke-linejoin:round;stroke-miterlimit:10;" x1="491.799" y1="363.446" x2="523.784" y2="395.43"/>
		
			<line style="fill:none;stroke:#8A8AFF;stroke-width:2.5442;stroke-linecap:round;stroke-linejoin:round;stroke-miterlimit:10;" x1="491.799" y1="392.127" x2="523.784" y2="424.112"/>
		
			<line style="fill:none;stroke:#8A8AFF;stroke-width:2.5442;stroke-linecap:round;stroke-linejoin:round;stroke-miterlimit:10;" x1="523.784" y1="129.693" x2="491.799" y2="161.678"/>
		
			<line style="fill:none;stroke:#8A8AFF;stroke-width:2.5442;stroke-linecap:round;stroke-linejoin:round;stroke-miterlimit:10;" x1="523.784" y1="160.93" x2="491.799" y2="192.914"/>
		
			<line style="fill:none;stroke:#8A8AFF;stroke-width:2.5442;stroke-linecap:round;stroke-linejoin:round;stroke-miterlimit:10;" x1="524.314" y1="195.907" x2="492.33" y2="227.891"/>
		
			<line style="fill:none;stroke:#8A8AFF;stroke-width:2.5442;stroke-linecap:round;stroke-linejoin:round;stroke-miterlimit:10;" x1="523.784" y1="229.013" x2="491.799" y2="260.998"/>
		
			<line style="fill:none;stroke:#8A8AFF;stroke-width:2.5442;stroke-linecap:round;stroke-linejoin:round;stroke-miterlimit:10;" x1="523.784" y1="264.931" x2="491.799" y2="296.915"/>
		
			<line style="fill:none;stroke:#8A8AFF;stroke-width:2.5442;stroke-linecap:round;stroke-linejoin:round;stroke-miterlimit:10;" x1="523.784" y1="295.227" x2="491.799" y2="327.211"/>
		
			<line style="fill:none;stroke:#8A8AFF;stroke-width:2.5442;stroke-linecap:round;stroke-linejoin:round;stroke-miterlimit:10;" x1="523.784" y1="329.527" x2="491.799" y2="361.511"/>
		
			<line style="fill:none;stroke:#8A8AFF;stroke-width:2.5442;stroke-linecap:round;stroke-linejoin:round;stroke-miterlimit:10;" x1="523.784" y1="363.446" x2="491.799" y2="395.43"/>
		
			<line style="fill:none;stroke:#8A8AFF;stroke-width:2.5442;stroke-linecap:round;stroke-linejoin:round;stroke-miterlimit:10;" x1="523.784" y1="392.127" x2="491.799" y2="424.112"/>
	</g>
	<g>
		<g>
			<g>
				
					<rect x="550.462" y="146.261" style="fill:none;stroke:#F9A813;stroke-width:3.2306;stroke-linecap:round;stroke-linejoin:round;stroke-miterlimit:10;" width="33.381" height="287.505"/>
				<g>
					<path style="fill:#F9A813;" d="M587.546,143.449h-42.784v-37.014c0-8.602,6.973-15.575,15.575-15.575h27.209V143.449z"/>
					<path style="fill:#6666C6;" d="M578.902,134.451h-29.047v-25.129c0-5.84,4.734-10.574,10.574-10.574h18.473V134.451z"/>
					<path style="fill:#5D515D;" d="M569.885,111.294c-7.631,1.553-14.536,5.26-20.029,10.667v12.49h29.047v-24.074
						C575.878,110.406,572.859,110.689,569.885,111.294z"/>
					<path style="fill:#FFC364;" d="M588.602,148.974h-44.151c-2.172,0-3.948-1.777-3.948-3.948l0,0
						c0-2.172,1.777-3.949,3.948-3.949h44.151c2.172,0,3.948,1.777,3.948,3.949l0,0C592.55,147.197,590.773,148.974,588.602,148.974
						z"/>
					
						<line style="fill:none;stroke:#F9A813;stroke-width:2.5127;stroke-linejoin:round;stroke-miterlimit:10;" x1="569.306" y1="95.652" x2="569.306" y2="138.185"/>
				</g>
				
					<line style="fill:none;stroke:#F9A813;stroke-width:3.2306;stroke-linecap:round;stroke-linejoin:round;stroke-miterlimit:10;" x1="551.808" y1="150.569" x2="582.497" y2="181.257"/>
				
					<line style="fill:none;stroke:#F9A813;stroke-width:3.2306;stroke-linecap:round;stroke-linejoin:round;stroke-miterlimit:10;" x1="551.808" y1="180.54" x2="582.497" y2="211.228"/>
				
					<line style="fill:none;stroke:#F9A813;stroke-width:3.2306;stroke-linecap:round;stroke-linejoin:round;stroke-miterlimit:10;" x1="552.077" y1="214.1" x2="582.766" y2="244.788"/>
				
					<line style="fill:none;stroke:#F9A813;stroke-width:3.2306;stroke-linecap:round;stroke-linejoin:round;stroke-miterlimit:10;" x1="551.808" y1="245.865" x2="582.497" y2="276.554"/>
				
					<line style="fill:none;stroke:#F9A813;stroke-width:3.2306;stroke-linecap:round;stroke-linejoin:round;stroke-miterlimit:10;" x1="551.808" y1="280.328" x2="582.497" y2="311.017"/>
				
					<line style="fill:none;stroke:#F9A813;stroke-width:3.2306;stroke-linecap:round;stroke-linejoin:round;stroke-miterlimit:10;" x1="551.808" y1="309.397" x2="582.497" y2="340.085"/>
				
					<line style="fill:none;stroke:#F9A813;stroke-width:3.2306;stroke-linecap:round;stroke-linejoin:round;stroke-miterlimit:10;" x1="552.077" y1="342.307" x2="582.766" y2="372.996"/>
				
					<line style="fill:none;stroke:#F9A813;stroke-width:3.2306;stroke-linecap:round;stroke-linejoin:round;stroke-miterlimit:10;" x1="551.808" y1="374.852" x2="582.497" y2="405.541"/>
				
					<line style="fill:none;stroke:#F9A813;stroke-width:3.2306;stroke-linecap:round;stroke-linejoin:round;stroke-miterlimit:10;" x1="551.808" y1="402.371" x2="582.497" y2="433.06"/>
				
					<line style="fill:none;stroke:#F9A813;stroke-width:3.2306;stroke-linecap:round;stroke-linejoin:round;stroke-miterlimit:10;" x1="582.766" y1="150.569" x2="552.077" y2="181.257"/>
				
					<line style="fill:none;stroke:#F9A813;stroke-width:3.2306;stroke-linecap:round;stroke-linejoin:round;stroke-miterlimit:10;" x1="582.497" y1="150.569" x2="551.808" y2="181.257"/>
				
					<line style="fill:none;stroke:#F9A813;stroke-width:3.2306;stroke-linecap:round;stroke-linejoin:round;stroke-miterlimit:10;" x1="582.497" y1="180.54" x2="551.808" y2="211.228"/>
				
					<line style="fill:none;stroke:#F9A813;stroke-width:3.2306;stroke-linecap:round;stroke-linejoin:round;stroke-miterlimit:10;" x1="583.005" y1="214.1" x2="552.317" y2="244.788"/>
				
					<line style="fill:none;stroke:#F9A813;stroke-width:3.2306;stroke-linecap:round;stroke-linejoin:round;stroke-miterlimit:10;" x1="582.497" y1="245.865" x2="551.808" y2="276.554"/>
				
					<line style="fill:none;stroke:#F9A813;stroke-width:3.2306;stroke-linecap:round;stroke-linejoin:round;stroke-miterlimit:10;" x1="582.497" y1="280.328" x2="551.808" y2="311.017"/>
				
					<line style="fill:none;stroke:#F9A813;stroke-width:3.2306;stroke-linecap:round;stroke-linejoin:round;stroke-miterlimit:10;" x1="582.497" y1="309.397" x2="551.808" y2="340.085"/>
				
					<line style="fill:none;stroke:#F9A813;stroke-width:3.2306;stroke-linecap:round;stroke-linejoin:round;stroke-miterlimit:10;" x1="582.497" y1="342.307" x2="551.808" y2="372.996"/>
				
					<line style="fill:none;stroke:#F9A813;stroke-width:3.2306;stroke-linecap:round;stroke-linejoin:round;stroke-miterlimit:10;" x1="582.497" y1="374.852" x2="551.808" y2="405.541"/>
				
					<line style="fill:none;stroke:#F9A813;stroke-width:3.2306;stroke-linecap:round;stroke-linejoin:round;stroke-miterlimit:10;" x1="582.497" y1="402.371" x2="551.808" y2="433.06"/>
			</g>
			
				<path style="fill:none;stroke:#F9A813;stroke-width:3.2306;stroke-linecap:round;stroke-linejoin:round;stroke-miterlimit:10;" d="
				M545.169,124.925c-3.589-0.718-245.522,0-245.522,0"/>
			
				<polyline style="fill:none;stroke:#F9A813;stroke-width:2.8844;stroke-linecap:round;stroke-linejoin:round;stroke-miterlimit:10;" points="
				298.928,123.566 319.44,106.259 340.592,124.207 			"/>
			
				<polyline style="fill:none;stroke:#F9A813;stroke-width:2.8844;stroke-linecap:round;stroke-linejoin:round;stroke-miterlimit:10;" points="
				339.951,123.566 360.463,106.259 381.615,124.207 			"/>
			
				<polyline style="fill:none;stroke:#F9A813;stroke-width:2.8844;stroke-linecap:round;stroke-linejoin:round;stroke-miterlimit:10;" points="
				380.974,123.566 401.486,106.259 422.638,124.207 			"/>
			
				<polyline style="fill:none;stroke:#F9A813;stroke-width:2.8844;stroke-linecap:round;stroke-linejoin:round;stroke-miterlimit:10;" points="
				421.997,123.566 442.509,106.259 463.661,124.207 			"/>
			
				<polyline style="fill:none;stroke:#F9A813;stroke-width:2.8844;stroke-linecap:round;stroke-linejoin:round;stroke-miterlimit:10;" points="
				463.02,123.566 483.532,106.259 504.684,124.207 			"/>
			
				<polyline style="fill:none;stroke:#F9A813;stroke-width:2.8844;stroke-linecap:round;stroke-linejoin:round;stroke-miterlimit:10;" points="
				504.043,123.566 524.555,106.259 545.707,124.207 			"/>
			
				<line style="fill:none;stroke:#F9A813;stroke-width:2.8844;stroke-linecap:round;stroke-linejoin:round;stroke-miterlimit:10;" x1="319.44" y1="106.259" x2="524.555" y2="106.259"/>
			
				<line style="fill:none;stroke:#362F36;stroke-width:0.7179;stroke-linecap:round;stroke-linejoin:round;stroke-miterlimit:10;" x1="462.251" y1="128.873" x2="462.251" y2="213.227"/>
			
				<line style="fill:none;stroke:#362F36;stroke-width:0.7179;stroke-linecap:round;stroke-linejoin:round;stroke-miterlimit:10;" x1="479.84" y1="129.95" x2="479.84" y2="217.534"/>
			<path style="fill:#F9A813;" d="M504.248,130.668h-61.74c-3.554,0-6.461-2.908-6.461-6.461l0,0c0-3.554,2.907-6.461,6.461-6.461
				h61.74c3.554,0,6.461,2.908,6.461,6.461l0,0C510.709,127.76,507.802,130.668,504.248,130.668z"/>
			<g>
				<path style="fill:#362F36;" d="M476.827,247.089c-1.097,2.539-3.615,4.325-6.548,4.34c-3.785,0.02-7.004-3.005-7.207-6.784
					c-0.223-4.137,3.079-7.574,7.168-7.574c0.007,0,0.015,0,0.022,0c1.168,0.004,2.131-0.908,2.131-2.076v-0.869
					c0-1.129-0.9-2.067-2.029-2.079c-0.042,0-0.083-0.001-0.125-0.001c-7.019,0-12.673,5.956-12.174,13.079
					c0.411,5.872,5.072,10.685,10.93,11.268c5.681,0.565,10.675-2.792,12.601-7.683c0.538-1.365-0.467-2.844-1.934-2.844h-0.944
					C477.903,245.865,477.151,246.339,476.827,247.089z"/>
			</g>
			<rect x="467.276" y="219.149" style="fill:#362F36;" width="5.025" height="15.794"/>
			<path style="fill:#F9A813;" d="M458.807,191.151v22.418c0,6.426,5.257,11.683,11.683,11.683l0,0
				c6.425,0,11.683-5.257,11.683-11.683v-22.418H458.807z"/>
			<path style="fill:#FFBB4D;" d="M476.609,213.406c0,3.568-2.893,6.461-6.461,6.461c-3.568,0-6.461-2.893-6.461-6.461
				c0-3.568,2.893-6.461,6.461-6.461C473.716,206.945,476.609,209.838,476.609,213.406z"/>
			
				<path style="fill:none;stroke:#362F36;stroke-width:0.7179;stroke-linecap:round;stroke-linejoin:round;stroke-miterlimit:10;" d="
				M473.782,213.406c0,2.007-1.627,3.634-3.634,3.634s-3.634-1.627-3.634-3.634c0-2.007,1.627-3.634,3.634-3.634
				S473.782,211.399,473.782,213.406z"/>
			<rect x="594.611" y="110.189" style="fill:#E0C7B3;" width="64.608" height="11.306"/>
			<rect x="594.611" y="98.344" style="fill:#E0C7B3;" width="64.608" height="11.306"/>
			<rect x="594.611" y="125.264" style="fill:#E0C7B3;" width="64.608" height="11.306"/>
			<rect x="594.611" y="136.57" style="fill:#E0C7B3;" width="64.608" height="11.306"/>
			
				<line style="fill:none;stroke:#F9A813;stroke-width:3.2306;stroke-linecap:round;stroke-linejoin:round;stroke-miterlimit:10;" x1="688.292" y1="123.29" x2="585.458" y2="123.29"/>
			
				<line style="fill:none;stroke:#362F36;stroke-width:0.7179;stroke-linecap:round;stroke-linejoin:round;stroke-miterlimit:10;" x1="594.611" y1="136.57" x2="658.68" y2="136.57"/>
			
				<line style="fill:none;stroke:#362F36;stroke-width:0.7179;stroke-linecap:round;stroke-linejoin:round;stroke-miterlimit:10;" x1="594.072" y1="110.189" x2="658.142" y2="110.189"/>
			
				<polyline style="fill:none;stroke:#F9A813;stroke-width:2.8844;stroke-linecap:round;stroke-linejoin:round;stroke-miterlimit:10;" points="
				549.385,99.421 564.281,29.967 574.869,29.967 584.92,107.497 			"/>
			
				<line style="fill:none;stroke:#F9A813;stroke-width:2.8844;stroke-linecap:round;stroke-linejoin:round;stroke-miterlimit:10;" x1="562.845" y1="39.12" x2="574.69" y2="39.12"/>
			
				<line style="fill:none;stroke:#F9A813;stroke-width:3.424;stroke-linecap:round;stroke-linejoin:round;stroke-miterlimit:10;" x1="560.692" y1="49.888" x2="577.382" y2="49.888"/>
			
				<line style="fill:none;stroke:#F9A813;stroke-width:3.8075;stroke-linecap:round;stroke-linejoin:round;stroke-miterlimit:10;" x1="558.359" y1="61.194" x2="578.997" y2="61.194"/>
			
				<line style="fill:none;stroke:#F9A813;stroke-width:4.186;stroke-linecap:round;stroke-linejoin:round;stroke-miterlimit:10;" x1="556.205" y1="74.116" x2="578.997" y2="74.116"/>
			
				<line style="fill:none;stroke:#F9A813;stroke-width:4.7857;stroke-linecap:round;stroke-linejoin:round;stroke-miterlimit:10;" x1="552.975" y1="86.499" x2="581.33" y2="86.499"/>
			
				<polyline style="fill:none;stroke:#362F36;stroke-width:0.7179;stroke-linecap:round;stroke-linejoin:round;stroke-miterlimit:10;" points="
				673.217,122.572 575.767,30.506 683.985,121.495 			"/>
			
				<line style="fill:none;stroke:#362F36;stroke-width:0.7179;stroke-linecap:round;stroke-linejoin:round;stroke-miterlimit:10;" x1="327.565" y1="104.266" x2="564.281" y2="29.967"/>
		</g>
		<rect x="517.602" y="451.601" style="fill:#E0C7B3;" width="92.167" height="16.129"/>
		<rect x="517.602" y="434.704" style="fill:#E0C7B3;" width="92.167" height="16.129"/>
		
			<line style="fill:none;stroke:#362F36;stroke-width:1.0241;stroke-linecap:round;stroke-linejoin:round;stroke-miterlimit:10;" x1="516.833" y1="451.601" x2="608.232" y2="451.601"/>
	</g>
	<path style="fill:none;stroke:#ACACFC;stroke-width:0.8137;stroke-linecap:round;stroke-linejoin:round;stroke-miterlimit:10;" d="
		M517.711,450.04c0,3.946-3.199,7.146-7.145,7.146c-3.946,0-7.145-3.199-7.145-7.146c0-3.946,3.199-7.145,7.145-7.145
		C514.512,442.895,517.711,446.094,517.711,450.04z"/>
	<g>
		<g>
			<g>
				<path style="fill:#914B29;" d="M639.769,443.721c0.621,4.266-1.496,8.84-5.019,10.841c-2.388,1.357-5.17,1.558-7.766,2.344
					c-5.065,1.533-9.477,5.453-11.864,10.543h34.278v-24.058L639.769,443.721z"/>
				<path style="fill:#914B29;" d="M626.984,456.905c2.596-0.785,5.378-0.987,7.766-2.344c2.041-1.16,3.611-3.183,4.449-5.51
					c0.682,1.057,1.34,2.132,2.07,3.151c0.707,0.987,1.498,1.943,2.484,2.609c0.99,0.669,2.128,0.915,3.276,0.689
					c0.846-0.166,1.636-0.564,2.368-1.07v13.018h-34.278C617.507,462.359,621.919,458.439,626.984,456.905z"/>
				<path style="fill:#403030;" d="M615.966,469.425h33.224c0.99,0,1.799-0.81,1.799-1.799v-0.152c0-0.99-0.81-1.799-1.799-1.799
					h-33.224c-0.99,0-1.799,0.81-1.799,1.799v0.152C614.167,468.615,614.976,469.425,615.966,469.425z"/>
				<path style="fill:#403030;" d="M640.679,456.259L640.679,456.259c0.358-0.389,0.358-1.025,0-1.414l-5.208-5.657
					c-0.358-0.389-0.944-0.389-1.302,0l0,0c-0.358,0.389-0.358,1.025,0,1.414l5.208,5.658
					C639.735,456.648,640.321,456.648,640.679,456.259z"/>
				<path style="fill:#403030;" d="M637.303,458.844L637.303,458.844c0.358-0.389,0.358-1.026,0-1.414l-5.208-5.658
					c-0.358-0.389-0.944-0.389-1.302,0l0,0c-0.358,0.389-0.358,1.025,0,1.414l5.208,5.658
					C636.359,459.232,636.945,459.232,637.303,458.844z"/>
				
					<path style="fill:none;stroke:#403030;stroke-width:1.2581;stroke-linecap:round;stroke-linejoin:round;stroke-miterlimit:10;" d="
					M649.455,457.087c0,0-8.388-2.796-5.033-16.775"/>
			</g>
			<g>
				<path style="fill:#914B29;" d="M677.852,442.352c-0.621,4.266,1.496,8.84,5.019,10.841c2.388,1.357,5.17,1.558,7.766,2.344
					c5.065,1.533,9.477,5.453,11.864,10.543h-34.277v-24.058L677.852,442.352z"/>
				<path style="fill:#914B29;" d="M690.637,455.537c-2.596-0.786-5.378-0.987-7.766-2.344c-2.041-1.16-3.611-3.183-4.449-5.51
					c-0.682,1.057-1.34,2.132-2.07,3.151c-0.707,0.987-1.498,1.943-2.484,2.609c-0.99,0.669-2.128,0.915-3.276,0.69
					c-0.846-0.166-1.636-0.564-2.368-1.07v13.018h34.277C700.114,460.99,695.703,457.07,690.637,455.537z"/>
				<path style="fill:#403030;" d="M701.655,468.056h-33.224c-0.99,0-1.799-0.81-1.799-1.799v-0.152c0-0.99,0.81-1.799,1.799-1.799
					h33.224c0.99,0,1.799,0.81,1.799,1.799v0.152C703.454,467.247,702.645,468.056,701.655,468.056z"/>
				<path style="fill:#403030;" d="M676.942,454.891L676.942,454.891c-0.358-0.389-0.358-1.025,0-1.414l5.207-5.658
					c0.358-0.389,0.944-0.389,1.302,0l0,0c0.358,0.389,0.358,1.025,0,1.414l-5.208,5.658
					C677.886,455.28,677.3,455.28,676.942,454.891z"/>
				<path style="fill:#403030;" d="M680.318,457.475L680.318,457.475c-0.358-0.389-0.358-1.025,0-1.414l5.207-5.658
					c0.358-0.389,0.944-0.389,1.302,0l0,0c0.358,0.389,0.358,1.026,0,1.414l-5.208,5.658
					C681.262,457.864,680.676,457.864,680.318,457.475z"/>
				
					<path style="fill:none;stroke:#403030;stroke-width:1.2581;stroke-linecap:round;stroke-linejoin:round;stroke-miterlimit:10;" d="
					M668.167,455.718c0,0,8.388-2.796,5.033-16.775"/>
			</g>
			<path style="fill:#F7B98F;" d="M667.075,344.532l-10.709-0.602c-8.497-0.477-15.058-7.82-14.581-16.317l1.698-30.216
				c0.477-8.497,7.82-15.058,16.317-14.581l10.709,0.602c8.497,0.477,15.058,7.82,14.581,16.317l-1.698,30.216
				C682.914,338.448,675.571,345.01,667.075,344.532z"/>
			<path style="fill:#F7B98F;" d="M649.982,446.581c2.056-12.766,12.394-109.99,12.365-122.932l-19.524-12.497
				c-2.638,16.158-11.542,120.79-11.602,135.218L649.982,446.581z"/>
			<path style="fill:#F7B98F;" d="M681.323,388.891c1.026-15.093,2.891-62.311,3.049-76.09l-20.761,7.363
				c-1.007,14.035,1.662,54.75,3.126,68.727H681.323z"/>
			<g>
				<path style="fill:#693822;" d="M669.07,342.671c-3.956,1.853-8.151,2.397-12.447,1.614c-0.533-0.097-0.307-0.91,0.224-0.813
					c4.057,0.739,8.065,0.22,11.797-1.529C669.133,341.714,669.561,342.44,669.07,342.671L669.07,342.671z"/>
			</g>
			<polygon style="fill:#F7B98F;" points="663.928,345.447 667.53,447.849 691.399,446.581 683.713,336.544 			"/>
			<g>
				<path style="fill:#FF734D;" d="M669.6,231.942c-0.352,1.862-0.555,3.752-0.608,5.646c-0.08,2.835,0.285,5.927,2.263,7.96
					c-1.226,1.686-3.086,3.071-5.106,3.587c-2.02,0.515-4.218,0.303-6.102-0.59c-0.514-0.244-1.003-0.535-1.492-0.826
					c-0.6-0.357-1.199-0.714-1.799-1.071c2.599-4.476,4.82-9.428,4.124-14.558c1.297-0.242,3.134-0.788,4.431-1.03
					c0.563-0.105,1.131-0.21,1.703-0.186C667.922,230.913,668.705,232.095,669.6,231.942z"/>
				<path style="fill:#403030;" d="M659.556,241.004c-0.759,1.946-1.748,3.834-2.799,5.644c0.6,0.357,1.199,0.714,1.799,1.071
					c0.489,0.291,0.978,0.582,1.492,0.826c1.884,0.893,4.082,1.105,6.102,0.59c2.02-0.515,3.88-1.9,5.106-3.587
					c-1.193-1.225-1.798-2.837-2.074-4.544H659.556z"/>
				<path style="fill:#403030;" d="M638.27,284.467c0.141,2.691,0.336,5.379,0.568,8.063c0.157,1.801,0.318,3.595,0.568,5.381
					c0.546,2.867,1.217,5.711,1.858,8.556c0.284,1.083,0.571,2.164,0.849,3.249c0.347,1.359,0.638,2.744,0.982,4.112
					c0.173,0.298,0.376,0.577,0.609,0.828c0.12,0.131,0.248,0.255,0.385,0.371c0.496,0.421,1.172,0.621,1.773,0.837
					c0.715,0.257,1.44,0.481,2.175,0.671c1.949,0.504,3.939,0.703,5.94,0.861c2.108,0.166,4.222,0.247,6.336,0.266
					c1.08,0.009,2.161,0.004,3.241-0.015c3.093-0.054,6.181-0.214,9.242-0.402c0.624-0.038,8.676-0.928,11.404-1.248
					c0.306-0.036,0.546-0.065,0.701-0.085c0.005,0,0.01-0.001,0.015-0.002l0.055-0.007c0.085-0.01,0.13-0.017,0.13-0.02
					c0.2-2.834,0.612-6.086,1.152-9.56c0.422-2.719,0.921-5.573,1.456-8.469c0.139-0.758,0.282-1.517,0.426-2.278
					c0.002-0.01,0.004-0.02,0.006-0.031c1.004-5.318,2.091-10.69,2.998-15.539c0.323-1.716,0.621-3.365,0.887-4.924
					c0.045-0.258,0.088-0.515,0.13-0.768c0.006-0.039,0.013-0.078,0.02-0.117c0.943-5.584,3.08-12.692,1.9-18.318
					c-0.836-3.992-4.899-6.328-8.505-7.942c-0.034-0.016-0.068-0.03-0.101-0.045c-0.401-0.18-0.797-0.349-1.181-0.512
					c-2.416-1.021-5.086-1.537-7.801-1.772c-0.539-0.046-1.08-0.082-1.622-0.109c-0.036-0.002-0.072-0.003-0.107-0.005
					c-1.206-0.056-2.412-0.066-3.601-0.049c-0.001,0-0.001,0-0.002,0c-0.434,0.006-0.865,0.017-1.293,0.029
					c-4.331,0.126-8.637,0.605-12.957,0.916c-0.688,0.049-1.376,0.095-2.064,0.134c-0.538,0.03-1.058,0.053-1.562,0.073
					c-0.127,0.004-0.253,0.009-0.378,0.013c-0.053,0.002-0.106,0.004-0.158,0.005c-0.151,0.006-0.302,0.011-0.45,0.016
					c-0.26,0.009-0.516,0.019-0.768,0.028c-1.298,0.05-2.491,0.117-3.606,0.299c-1.294,0.577-2.62,1.091-3.844,1.81
					c-0.838,0.49-1.585,1.056-2.172,1.814c-0.669,0.863-1.106,1.93-1.451,2.956c-0.755,2.241-1.101,4.611-1.39,6.936
					c-0.316,2.533-0.633,5.058-0.8,7.605C637.905,273.533,637.983,279.011,638.27,284.467z"/>
				<path style="fill:#403030;" d="M658.118,242h11.766c0.871,0,1.584-0.713,1.584-1.584l0,0c0-0.871-0.713-1.584-1.584-1.584
					h-11.766c-0.871,0-1.584,0.713-1.584,1.584l0,0C656.534,241.287,657.247,242,658.118,242z"/>
			</g>
			<path style="fill:#5A525D;" d="M691.984,277.385c0.091-1.027,0.174-2.055,0.247-3.084c0.098,0.181,0.195,0.362,0.287,0.544
				C692.361,275.596,692.181,276.453,691.984,277.385z"/>
			<path style="fill:#5A525D;" d="M688.123,264.519c-0.456-2.258-0.5-4.636-0.385-6.902c0.124-2.444,0.437-5.398,1.911-7.495
				c2.133,1.427,3.906,3.271,4.427,5.756C694.37,259.799,689.163,261.422,688.123,264.519z"/>
			<g>
				<path style="fill:#403030;" d="M650.118,264.393l-15.511,38.094l-0.413,1.015c-0.895,2.197-2.839,3.69-4.997,4.147
					l-27.764,5.665c-2.849,0.581-5.629-1.257-6.21-4.105c-0.481-2.358,0.701-4.67,2.735-5.726l25.157-13.04l-5.41,5.162
					l15.511-38.094c1.9-4.667,7.224-6.91,11.892-5.01C649.776,254.402,652.018,259.726,650.118,264.393z"/>
			</g>
			<path style="fill:#2D201B;" d="M665.486,222.003c-1.925,0.413-2.983,2.402-2.708,4.186c0.275,1.784,1.576,3.344,3.046,4.609
				c0.738-2.174,1.26-4.088,1.997-6.262c0.277-0.817,0.467-1.885-0.323-2.406C667.054,221.837,666.007,221.891,665.486,222.003z"/>
			<path style="fill:#FF734D;" d="M654.866,229.762c0,0.121,0.003,0.238,0.01,0.355c0,0.043,0.004,0.085,0.007,0.128
				c0,0.025,0,0.05,0.003,0.075c0.007,0.103,0.018,0.203,0.029,0.302c0.028,0.242,0.068,0.483,0.121,0.718
				c0.011,0.057,0.025,0.117,0.035,0.174c0.125,0.508,0.302,1.003,0.526,1.472c0.05,0.103,0.103,0.203,0.156,0.302
				c0.028,0.053,0.057,0.107,0.085,0.16c0.05,0.085,0.103,0.171,0.156,0.256c0.128,0.21,0.267,0.412,0.416,0.608
				c0.071,0.089,0.142,0.178,0.217,0.267c0.302,0.355,0.636,0.686,1.003,0.985c0.274,0.224,0.569,0.427,0.878,0.611
				c0.068,0.039,0.135,0.078,0.203,0.117c0.05,0.025,0.1,0.053,0.149,0.078c0.025,0.014,0.053,0.029,0.078,0.043
				c0.028,0.011,0.053,0.025,0.078,0.036c0.082,0.043,0.16,0.082,0.245,0.117c0.487,0.22,1.006,0.387,1.554,0.498
				c0.117,0.025,0.238,0.046,0.356,0.064c0.267,0.043,0.533,0.064,0.8,0.075c1.067,0.046,2.112-0.146,3.065-0.526
				c1.714-0.69,3.146-2.005,3.957-3.715c0.252-0.53,0.444-1.098,0.565-1.699l0.164-0.814l0.185-0.907l0.864-4.263l0.16-0.796
				l0.235-1.156l0.085-0.427l0.441-2.183c0.025-0.121,0.046-0.242,0.064-0.359c0.007-0.05,0.014-0.103,0.021-0.153
				c0-0.011,0.004-0.018,0.004-0.028c0.007-0.046,0.011-0.092,0.014-0.139c0.007-0.046,0.011-0.096,0.014-0.142
				c0.004-0.011,0.004-0.025,0.004-0.036c0.004-0.028,0.007-0.057,0.007-0.085c0.004-0.036,0.004-0.071,0.007-0.107
				c0-0.021,0.003-0.043,0.003-0.064c0.004-0.05,0.004-0.1,0.007-0.153v-0.206c0-0.1,0-0.199-0.007-0.299
				c0-0.057-0.003-0.114-0.007-0.171c-0.004-0.053-0.007-0.103-0.011-0.156c-0.004-0.05-0.011-0.1-0.014-0.153
				c-0.004,0,0,0-0.004-0.004c-0.004-0.05-0.011-0.1-0.018-0.153c-0.007-0.05-0.014-0.1-0.021-0.153
				c-0.007-0.05-0.014-0.1-0.025-0.153c-0.018-0.103-0.036-0.203-0.06-0.306c-0.004-0.018-0.007-0.039-0.011-0.057
				c-0.021-0.085-0.039-0.167-0.064-0.253c-0.004-0.018-0.007-0.039-0.014-0.057c-0.021-0.085-0.046-0.171-0.075-0.256
				c-0.004-0.014-0.007-0.029-0.011-0.039c-0.789-2.499-2.873-4.512-5.607-5.066c-2.979-0.601-5.919,0.693-7.562,3.043
				c-0.053,0.078-0.107,0.157-0.156,0.235c-0.483,0.75-0.839,1.6-1.024,2.524l-1.017,5.024l-1.116,5.521
				c-0.025,0.125-0.046,0.245-0.064,0.366c-0.014,0.082-0.025,0.16-0.032,0.242c-0.007,0.039-0.011,0.082-0.014,0.121
				c-0.004,0.025-0.007,0.053-0.007,0.078c-0.007,0.078-0.014,0.153-0.018,0.231c0,0.021-0.004,0.046-0.004,0.067
				C654.87,229.538,654.866,229.652,654.866,229.762z"/>
			<path style="fill:#403030;" d="M654.88,229.356c0.005-0.077,0.01-0.154,0.018-0.231c0.002-0.025,0.005-0.051,0.007-0.076
				c0.004-0.041,0.009-0.082,0.013-0.122c0.009-0.08,0.02-0.16,0.032-0.24c0.018-0.122,0.04-0.244,0.065-0.366l0.261-1.292
				c2.253-3.363,6.76-1.774,9.581,0.013c0.056,0.035,0.11,0.055,0.164,0.069c0.008,0.009,0.016,0.017,0.024,0.026
				c0.216,0.24,0.695,0.196,0.838-0.108c1.1-2.341,3.009-3.411,5.282-3.699l-0.234,1.154l-1.023,5.059l-0.348,1.72
				c-0.513,2.535-2.281,4.511-4.525,5.414c-1.191,0.479-2.518,0.656-3.862,0.452c-0.119-0.018-0.239-0.039-0.358-0.063
				c-0.545-0.111-1.065-0.279-1.554-0.498c-0.083-0.037-0.164-0.076-0.244-0.116c-0.025-0.012-0.051-0.025-0.076-0.037
				c-0.027-0.014-0.055-0.028-0.081-0.043c-0.05-0.025-0.099-0.052-0.148-0.079c-0.069-0.038-0.137-0.077-0.205-0.117
				c-0.308-0.184-0.601-0.388-0.876-0.612c-0.366-0.296-0.701-0.626-1.002-0.984c-0.074-0.088-0.146-0.177-0.216-0.268
				c-0.149-0.195-0.289-0.396-0.419-0.605c-0.053-0.085-0.104-0.171-0.154-0.258c-0.029-0.053-0.059-0.105-0.088-0.159
				c-0.053-0.098-0.104-0.199-0.153-0.301c-0.225-0.47-0.402-0.964-0.526-1.475c-0.013-0.057-0.027-0.114-0.039-0.171
				c-0.052-0.238-0.092-0.478-0.119-0.72c-0.012-0.1-0.022-0.201-0.029-0.302c-0.002-0.025-0.004-0.051-0.005-0.076
				c-0.003-0.042-0.005-0.083-0.007-0.125c-0.005-0.119-0.008-0.238-0.008-0.357c0-0.112,0.003-0.225,0.009-0.337
				C654.878,229.402,654.879,229.38,654.88,229.356z"/>
			<path style="fill:#403030;" d="M699.188,254.215c5.825,7.651,11.501,15.414,12.471,25.281c0.926,9.417-0.668,22.597-9.756,27.887
				c-6.302,3.668-17.504,2.015-24.404,0.655c-3.833-0.756-8.216-2.063-9.5-5.827c-1.294-3.792,1.535-8.205,5.154-10.069
				c3.619-1.863,7.824-0.974,11.733-1.896c4.089-0.965,10.062-2.32,10.062-2.32c1.831-0.228-3.022-12.647-3.602-13.858
				c-2.651-5.538-6.034-11.193-5.921-17.699c0.038-2.219,1.071-5.094,2.989-6.406C691.748,247.683,696.602,250.818,699.188,254.215z
				"/>
			<path style="fill:#FF6D00;" d="M689.967,271.685c-0.775-1.194-1.439-2.446-1.965-3.763c-0.225-0.557-0.424-1.122-0.595-1.702
				c-0.553-1.855-0.79-3.858-0.828-5.85c-0.031-1.336,0.034-2.664,0.149-3.942c0.21-2.316,0.637-4.915,1.988-6.888
				c-1.026-0.61-2.102-1.137-3.144-1.606c-0.034-0.011-0.069-0.027-0.099-0.046c-0.404-0.176-0.797-0.343-1.183-0.508
				c-2.416-1.023-5.087-1.538-7.804-1.771c-0.538-0.05-1.076-0.084-1.622-0.111c-0.115,0.004-0.229,0-0.347-0.004
				c0.004,0.015,0.008,0.034,0.008,0.053l-3.366-0.103l-5.396,14.924l-2.728,7.552l-1.362,3.763l-2.843,7.861l-0.454-7.861
				l-1.465-25.293l-3.236,0.012c-1.435-0.145-2.751-0.122-3.969,0.015h-0.374l-0.008,0.046c-9.372,1.286-12.295,9.941-12.295,9.941
				l-0.244,15.28l-0.034,2.034l-0.813,50.517l19.733,0.126c0.488,0.408,1.515,0.672,2.912,0.836
				c6.693,0.786,21.908-0.683,27.281,0.626c0.076-1.275,0.149-2.542,0.229-3.808c0.721-12.414,2.107-24.797,4.728-36.928
				c0.267-1.671,0.557-3.339,0.87-5.007c0.309-1.622,0.634-3.24,0.985-4.858C691.68,274.104,690.765,272.925,689.967,271.685z"/>
			<path style="fill:#FFF8F3;" d="M662.904,228.943c-0.201,1.4-1.401,2.477-2.856,2.477c-1.455,0-2.656-1.077-2.857-2.477H662.904z"
				/>
			<path style="fill:#FF6D00;" d="M674.184,256.482L674.184,256.482c3.485,0,6.336-2.851,6.336-6.336v-2.263
				c0-3.485-2.851-6.336-6.336-6.336l0,0c-3.485,0-6.336,2.851-6.336,6.336v2.263C667.848,253.63,670.699,256.482,674.184,256.482z"
				/>
			<path style="fill:#FF6D00;" d="M652.008,255.35L652.008,255.35c3.485,0,6.336-2.851,6.336-6.336v-2.263
				c0-3.485-2.851-6.336-6.336-6.336l0,0c-3.485,0-6.336,2.851-6.336,6.336v2.263C645.673,252.499,648.524,255.35,652.008,255.35z"
				/>
			<path style="fill:#FF6D00;" d="M638.771,326.175h45.482c3.049,0,5.544-2.495,5.544-5.544l0,0c0-3.049-2.495-5.544-5.544-5.544
				h-45.482c-3.049,0-5.544,2.495-5.544,5.544l0,0C633.227,323.68,635.722,326.175,638.771,326.175z"/>
			
				<polyline style="fill:none;stroke:#FFF8F3;stroke-width:0.9051;stroke-linecap:round;stroke-linejoin:round;stroke-miterlimit:10;" points="
				668.527,253.087 658.829,279.544 658.57,326.401 			"/>
			
				<line style="fill:none;stroke:#FFF8F3;stroke-width:0.9051;stroke-linecap:round;stroke-linejoin:round;stroke-miterlimit:10;" x1="657.213" y1="252.408" x2="658.829" y2="279.544"/>
			<path style="fill:#FFF8F3;" d="M658.57,283.409L658.57,283.409c0.622,0,1.131-0.509,1.131-1.131v-4.073
				c0-0.622-0.509-1.131-1.131-1.131l0,0c-0.622,0-1.131,0.509-1.131,1.131v4.073C657.439,282.9,657.948,283.409,658.57,283.409z"/>
			
				<line style="fill:none;stroke:#693822;stroke-width:0.9051;stroke-linecap:round;stroke-linejoin:round;stroke-miterlimit:10;" x1="667.169" y1="342.92" x2="671.695" y2="447.234"/>
			
				<line style="fill:none;stroke:#693822;stroke-width:0.9051;stroke-linecap:round;stroke-linejoin:round;stroke-miterlimit:10;" x1="658.57" y1="344.504" x2="647.483" y2="446.555"/>
			<rect x="636.984" y="261.916" style="fill:#FFF8F3;" width="20.668" height="5.351"/>
			<path style="fill:#FFF8F3;" d="M688.003,267.921h-24.971l2.729-7.552h20.818c0.037,1.992,0.276,3.996,0.827,5.852
				C687.578,266.801,687.776,267.365,688.003,267.921z"/>
			<path style="fill:#403030;" d="M661.857,225.215h2.398c1.083,0,1.969-0.886,1.969-1.969v-2.139c0-0.209-0.171-0.38-0.38-0.38
				h-3.987c-1.083,0-1.969,0.886-1.969,1.969v0.549C659.888,224.329,660.774,225.215,661.857,225.215z"/>
			<path style="fill:#403030;" d="M656.689,225.083h-1.731c-1.122,0-2.041-0.918-2.041-2.04v-1.493c0-0.32,0.262-0.583,0.583-0.583
				h3.189c1.122,0,2.041,0.918,2.041,2.04v0.036C658.73,224.165,657.812,225.083,656.689,225.083z"/>
			<path style="fill:#403030;" d="M653.279,221.492h12.633c0.393,0,0.714-0.321,0.714-0.714l0,0c0-0.393-0.321-0.714-0.714-0.714
				h-12.633c-0.393,0-0.714,0.322-0.714,0.714l0,0C652.564,221.171,652.886,221.492,653.279,221.492z"/>
			<path style="fill:#FF734D;" d="M674.48,226.984c-0.014,1.578-1.305,2.846-2.883,2.832c-1.578-0.014-2.846-1.305-2.831-2.883
				c0.014-1.578,1.305-2.846,2.883-2.831C673.227,224.115,674.494,225.406,674.48,226.984z"/>
			<path style="fill:#403030;" d="M668.347,219.354c0.028-0.017-0.001-0.066-0.034-0.062c-0.032,0.004-0.053,0.036-0.069,0.064
				c-0.293,0.535-0.335,1.2-0.112,1.767c0.223,0.567,0.708,1.026,1.286,1.217c-0.613,0.642-0.791,1.662-0.433,2.474
				c0.798-0.82,2.048-0.75,3.189-0.662c1.141,0.088,2.462,0.087,3.207-0.782c0.253-0.295,0.408-0.665,0.486-1.045
				c0.076-0.374,0.078-0.773-0.064-1.127c-0.273-0.68-1.023-1.059-1.75-1.153c-0.727-0.094-1.462,0.035-2.195,0.059
				C670.679,220.144,669.421,219.842,668.347,219.354z"/>
			<g>
				<g>
					<path style="fill:#FF734D;" d="M588.756,297.881c-0.526,1.073,4.556,3.98,4.556,3.98s-11.411,1.938-11.285,3.485
						c0.005,0.062,0.029,0.117,0.061,0.169c0.37,0.131,0.738,0.269,1.101,0.416c2.412,0.238,7.739-0.879,7.739-0.879
						s-1.793,0.494-3.755,1.194c1.376,0.267,2.691,0.758,3.953,1.394c0.249-0.096,0.392-0.153,0.392-0.153s-0.138,0.059-0.372,0.164
						c1.834,0.928,3.557,2.159,5.196,3.441c3.392-1.402,6.495-2.82,6.495-2.82l-2.144-6.476
						C600.695,301.795,589.643,296.07,588.756,297.881z"/>
				</g>
				<path style="fill:#FF734D;" d="M589.468,309.114c-0.379,0.764-0.024,1.741,0.635,2.281c0.659,0.54,1.546,0.717,2.398,0.745
					c1.906,0.061,3.826-0.56,5.335-1.727c1.021-0.789,1.909-2.049,1.564-3.293c-0.291-1.051-1.347-1.685-2.352-2.108
					c-2.396-1.009-7.224-2.386-9.581-0.611C585.442,305.924,586.762,310.583,589.468,309.114z"/>
			</g>
			<path style="fill:#FFF8F3;" d="M692.673,275.222c-0.351,1.618-0.675,3.236-0.985,4.858h-54.94v-8.395h53.219
				C690.765,272.925,691.68,274.104,692.673,275.222z"/>
		</g>
		<path style="fill:#F9A813;" d="M674.668,221.203l-28.053-1.395c-1.114-0.055-1.979-1.012-1.924-2.125l0,0
			c0.055-1.113,1.012-1.979,2.125-1.924l28.053,1.395c1.113,0.055,1.979,1.012,1.924,2.125l0,0
			C676.738,220.393,675.782,221.259,674.668,221.203z"/>
		<path style="fill:#F9A813;" d="M674.755,219.468l0.36-7.23c0.245-4.931-3.589-9.166-8.519-9.411l0,0
			c-4.931-0.245-9.166,3.589-9.411,8.519l-0.36,7.23L674.755,219.468z"/>
		
			<path style="fill:none;stroke:#362F36;stroke-width:0.5791;stroke-linecap:round;stroke-linejoin:round;stroke-miterlimit:10;" d="
			M664.154,203.148c-2.847,2.691-3.675,6.62-3.311,10.409"/>
		
			<path style="fill:none;stroke:#362F36;stroke-width:0.5791;stroke-linecap:round;stroke-linejoin:round;stroke-miterlimit:10;" d="
			M668.477,203.654c-2.847,2.691-3.675,6.62-3.311,10.409"/>
	</g>
	<g>
		<g>
			<rect x="335.544" y="178.197" style="fill:#CFCFFF;" width="6.96" height="287.888"/>
			<rect x="357.45" y="178.197" style="fill:#CFCFFF;" width="6.96" height="287.888"/>
			<rect x="379.356" y="178.197" style="fill:#CFCFFF;" width="6.96" height="287.888"/>
			<rect x="402.305" y="178.197" style="fill:#CFCFFF;" width="6.96" height="287.888"/>
			<rect x="425.254" y="178.197" style="fill:#CFCFFF;" width="6.96" height="287.888"/>
			<rect x="448.202" y="178.197" style="fill:#CFCFFF;" width="6.96" height="287.888"/>
		</g>
		<rect x="260.684" y="221.418" style="fill:#CFCFFF;" width="60.502" height="246.13"/>
		<rect x="337.981" y="211.561" style="fill:#CFCFFF;" width="114.744" height="7.302"/>
		<rect x="337.981" y="243.898" style="fill:#CFCFFF;" width="114.744" height="7.302"/>
		<rect x="337.981" y="276.235" style="fill:#CFCFFF;" width="114.744" height="7.302"/>
		<rect x="337.981" y="308.573" style="fill:#CFCFFF;" width="114.744" height="7.302"/>
		<rect x="337.981" y="340.909" style="fill:#CFCFFF;" width="114.744" height="7.302"/>
		<rect x="337.981" y="373.247" style="fill:#CFCFFF;" width="114.744" height="7.302"/>
		<rect x="337.981" y="405.584" style="fill:#CFCFFF;" width="114.744" height="7.302"/>
		<rect x="337.981" y="437.921" style="fill:#CFCFFF;" width="114.744" height="7.302"/>
		<path style="opacity:0.38;fill:#CFCFFF;" d="M235.458,160.112v35.326h-16.93v-35.326h-7.369v35.326h-16.93v-64.62h-7.369v64.62
			h-16.93V78.741h-7.369v116.698h-15.825V78.741h-7.369v116.698h-15.825V78.741h-7.369v386.194h7.369v-22.09h15.825v22.09h7.369
			v-22.09h15.825v22.09h7.369v-22.09h16.93v22.09h7.369v-22.09h16.93v22.09h7.369v-22.09h16.93v22.09h7.369V160.112H235.458z
			 M235.458,203.17v26.508h-16.93V203.17H235.458z M169.931,298.157v-26.508h16.93v26.508H169.931z M186.861,305.888v26.508h-16.93
			v-26.508H186.861z M162.562,298.157h-15.825v-26.508h15.825V298.157z M162.562,305.888v26.508h-15.825v-26.508H162.562z
			 M162.562,340.127v26.508h-15.825v-26.508H162.562z M169.931,340.127h16.93v26.508h-16.93V340.127z M194.23,340.127h16.93v26.508
			h-16.93V340.127z M194.23,332.396v-26.508h16.93v26.508H194.23z M194.23,298.157v-26.508h16.93v26.508H194.23z M194.23,263.917
			V237.41h16.93v26.508H194.23z M186.861,263.917h-16.93V237.41h16.93V263.917z M162.562,263.917h-15.825V237.41h15.825V263.917z
			 M139.367,263.917h-15.825V237.41h15.825V263.917z M139.367,271.649v26.508h-15.825v-26.508H139.367z M139.367,305.888v26.508
			h-15.825v-26.508H139.367z M139.367,340.127v26.508h-15.825v-26.508H139.367z M139.367,374.366v26.508h-15.825v-26.508H139.367z
			 M146.736,374.366h15.825v26.508h-15.825V374.366z M169.931,374.366h16.93v26.508h-16.93V374.366z M194.23,374.366h16.93v26.508
			h-16.93V374.366z M218.529,374.366h16.93v26.508h-16.93V374.366z M218.529,366.635v-26.508h16.93v26.508H218.529z
			 M218.529,332.396v-26.508h16.93v26.508H218.529z M218.529,298.157v-26.508h16.93v26.508H218.529z M218.529,263.917V237.41h16.93
			v26.508H218.529z M211.159,203.17v26.508h-16.93V203.17H211.159z M186.861,203.17v26.508h-16.93V203.17H186.861z M162.562,203.17
			v26.508h-15.825V203.17H162.562z M139.367,203.17v26.508h-15.825V203.17H139.367z M123.542,435.114v-26.508h15.825v26.508H123.542
			z M146.736,435.114v-26.508h15.825v26.508H146.736z M169.931,435.114v-26.508h16.93v26.508H169.931z M194.23,435.114v-26.508
			h16.93v26.508H194.23z M218.529,435.114v-26.508h16.93v26.508H218.529z"/>
		<g>
			<g>
				<rect x="266.942" y="241.291" style="fill:#ACACFC;" width="5.216" height="15.647"/>
				<rect x="277.895" y="241.291" style="fill:#ACACFC;" width="5.216" height="15.647"/>
				<rect x="288.848" y="241.291" style="fill:#ACACFC;" width="5.216" height="15.647"/>
				<rect x="299.801" y="241.291" style="fill:#ACACFC;" width="5.216" height="15.647"/>
				<rect x="310.754" y="241.291" style="fill:#ACACFC;" width="5.216" height="15.647"/>
			</g>
			<g>
				<rect x="266.942" y="266.326" style="fill:#ACACFC;" width="5.216" height="15.647"/>
				<rect x="277.895" y="266.326" style="fill:#ACACFC;" width="5.216" height="15.647"/>
				<rect x="288.848" y="266.326" style="fill:#ACACFC;" width="5.216" height="15.647"/>
				<rect x="299.801" y="266.326" style="fill:#ACACFC;" width="5.216" height="15.647"/>
				<rect x="310.754" y="266.326" style="fill:#ACACFC;" width="5.216" height="15.647"/>
			</g>
			<g>
				<rect x="266.942" y="291.361" style="fill:#ACACFC;" width="5.216" height="15.647"/>
				<rect x="277.895" y="291.361" style="fill:#ACACFC;" width="5.216" height="15.647"/>
				<rect x="288.848" y="291.361" style="fill:#ACACFC;" width="5.216" height="15.647"/>
				<rect x="299.801" y="291.361" style="fill:#ACACFC;" width="5.216" height="15.647"/>
				<rect x="310.754" y="291.361" style="fill:#ACACFC;" width="5.216" height="15.647"/>
			</g>
			<g>
				<rect x="266.942" y="316.396" style="fill:#ACACFC;" width="5.216" height="15.647"/>
				<rect x="277.895" y="316.396" style="fill:#ACACFC;" width="5.216" height="15.647"/>
				<rect x="288.848" y="316.396" style="fill:#ACACFC;" width="5.216" height="15.647"/>
				<rect x="299.801" y="316.396" style="fill:#ACACFC;" width="5.216" height="15.647"/>
				<rect x="310.754" y="316.396" style="fill:#ACACFC;" width="5.216" height="15.647"/>
			</g>
			<g>
				<rect x="266.942" y="341.431" style="fill:#ACACFC;" width="5.216" height="15.647"/>
				<rect x="277.895" y="341.431" style="fill:#ACACFC;" width="5.216" height="15.647"/>
				<rect x="288.848" y="341.431" style="fill:#ACACFC;" width="5.216" height="15.647"/>
				<rect x="299.801" y="341.431" style="fill:#ACACFC;" width="5.216" height="15.647"/>
				<rect x="310.754" y="341.431" style="fill:#ACACFC;" width="5.216" height="15.647"/>
			</g>
			<g>
				<rect x="266.942" y="366.466" style="fill:#ACACFC;" width="5.216" height="15.647"/>
				<rect x="277.895" y="366.466" style="fill:#ACACFC;" width="5.216" height="15.647"/>
				<rect x="288.848" y="366.466" style="fill:#ACACFC;" width="5.216" height="15.647"/>
				<rect x="299.801" y="366.466" style="fill:#ACACFC;" width="5.216" height="15.647"/>
				<rect x="310.754" y="366.466" style="fill:#ACACFC;" width="5.216" height="15.647"/>
			</g>
			<g>
				<rect x="266.942" y="391.501" style="fill:#ACACFC;" width="5.216" height="15.647"/>
				<rect x="277.895" y="391.501" style="fill:#ACACFC;" width="5.216" height="15.647"/>
				<rect x="288.848" y="391.501" style="fill:#ACACFC;" width="5.216" height="15.647"/>
				<rect x="299.801" y="391.501" style="fill:#ACACFC;" width="5.216" height="15.647"/>
				<rect x="310.754" y="391.501" style="fill:#ACACFC;" width="5.216" height="15.647"/>
			</g>
			<g>
				<rect x="266.942" y="416.536" style="fill:#ACACFC;" width="5.216" height="15.647"/>
				<rect x="277.895" y="416.536" style="fill:#ACACFC;" width="5.216" height="15.647"/>
				<rect x="288.848" y="416.536" style="fill:#ACACFC;" width="5.216" height="15.647"/>
				<rect x="299.801" y="416.536" style="fill:#ACACFC;" width="5.216" height="15.647"/>
				<rect x="310.754" y="416.536" style="fill:#ACACFC;" width="5.216" height="15.647"/>
			</g>
			<g>
				<rect x="266.942" y="441.572" style="fill:#ACACFC;" width="5.216" height="15.647"/>
				<rect x="277.895" y="441.572" style="fill:#ACACFC;" width="5.216" height="15.647"/>
				<rect x="288.848" y="441.572" style="fill:#ACACFC;" width="5.216" height="15.647"/>
				<rect x="299.801" y="441.572" style="fill:#ACACFC;" width="5.216" height="15.647"/>
				<rect x="310.754" y="441.572" style="fill:#ACACFC;" width="5.216" height="15.647"/>
			</g>
		</g>
	</g>
	<g>
		<path style="fill:#FFBF80;" d="M195.623,469.153h-40.961c-2.872,0-4.667-3.109-3.231-5.596l20.481-35.474l20.481-35.474
			c1.436-2.487,5.026-2.487,6.462,0l20.481,35.474l20.481,35.474c1.436,2.487-0.359,5.596-3.231,5.596H195.623z"/>
		<path style="fill:#E8984F;" d="M192.35,392.682l-20.439,35.402l-20.481,35.474c-1.436,2.487,0.359,5.596,3.231,5.596h37.689
			V392.682z"/>
		<path style="fill:#FFBF80;" d="M267.577,468.478h-46.913c-3.289,0-5.345-3.561-3.701-6.409l23.456-40.628l23.456-40.628
			c1.645-2.849,5.756-2.849,7.401,0l23.456,40.628l23.456,40.628c1.645,2.849-0.411,6.409-3.7,6.409H267.577z"/>
		<path style="fill:#E8984F;" d="M263.829,380.896l-23.409,40.545l-23.456,40.628c-1.645,2.849,0.411,6.409,3.701,6.409h43.165
			V380.896z"/>
		<path style="fill:#E8984F;" d="M205.554,423.228c0,1.011-0.82,1.831-1.831,1.831c-1.011,0-1.831-0.82-1.831-1.831
			s0.82-1.831,1.831-1.831C204.734,421.397,205.554,422.217,205.554,423.228z"/>
		<path style="fill:#E8984F;" d="M212.267,434.926c0,0.843-0.683,1.526-1.526,1.526c-0.843,0-1.526-0.683-1.526-1.526
			s0.683-1.526,1.526-1.526C211.584,433.4,212.267,434.083,212.267,434.926z"/>
		<path style="fill:#E8984F;" d="M206.775,449.166c0,1.854-1.503,3.356-3.357,3.356c-1.854,0-3.357-1.503-3.357-3.356
			c0-1.854,1.503-3.357,3.357-3.357C205.272,445.809,206.775,447.312,206.775,449.166z"/>
		<path style="fill:#E8984F;" d="M198.027,431.162c0,0.449-0.364,0.814-0.814,0.814s-0.814-0.364-0.814-0.814
			c0-0.449,0.364-0.814,0.814-0.814S198.027,430.713,198.027,431.162z"/>
		<path style="fill:#E8984F;" d="M271.465,422.008c0,0.899-0.729,1.628-1.628,1.628s-1.627-0.729-1.627-1.628
			c0-0.899,0.729-1.627,1.627-1.627S271.465,421.109,271.465,422.008z"/>
		<circle style="fill:#E8984F;" cx="275.025" cy="405.835" r="1.933"/>
		<path style="fill:#E8984F;" d="M290.181,442.147c0,1.348-1.093,2.441-2.441,2.441s-2.441-1.093-2.441-2.441
			c0-1.348,1.093-2.441,2.441-2.441S290.181,440.799,290.181,442.147z"/>
		<path style="fill:#E8984F;" d="M276.551,447.131c0,1.404-1.138,2.543-2.543,2.543c-1.404,0-2.543-1.138-2.543-2.543
			c0-1.404,1.138-2.543,2.543-2.543C275.413,444.589,276.551,445.727,276.551,447.131z"/>
		<path style="fill:#E8984F;" d="M284.078,420.787c0,0.899-0.729,1.628-1.627,1.628s-1.628-0.729-1.628-1.628
			c0-0.899,0.729-1.627,1.628-1.627S284.078,419.888,284.078,420.787z"/>
		<circle style="fill:#FFBF80;" cx="297.199" cy="456.489" r="2.746"/>
		<path style="fill:#FFBF80;" d="M186.025,425.568c0,1.067-0.865,1.933-1.933,1.933s-1.933-0.865-1.933-1.933
			c0-1.067,0.865-1.932,1.933-1.932S186.025,424.5,186.025,425.568z"/>
		<circle style="fill:#FFBF80;" cx="174.328" cy="442.249" r="2.746"/>
		<path style="fill:#FFBF80;" d="M188.669,437.672c0,0.562-0.455,1.017-1.017,1.017c-0.562,0-1.017-0.455-1.017-1.017
			c0-0.562,0.455-1.017,1.017-1.017C188.214,436.655,188.669,437.11,188.669,437.672z"/>
		<circle style="fill:#FFBF80;" cx="181.956" cy="461.677" r="2.034"/>
		<circle style="fill:#FFBF80;" cx="171.174" cy="457.201" r="4.272"/>
		<path style="fill:#FFBF80;" d="M240.341,451.302c0,1.011-0.82,1.831-1.831,1.831c-1.011,0-1.831-0.82-1.831-1.831
			c0-1.011,0.82-1.831,1.831-1.831C239.521,449.471,240.341,450.29,240.341,451.302z"/>
		<path style="fill:#FFBF80;" d="M255.394,418.753c0,1.685,0,3.051,0,3.051S255.394,420.438,255.394,418.753
			c0-1.685,0-3.051,0-3.051S255.394,417.068,255.394,418.753z"/>
		<path style="fill:#FFBF80;" d="M256.818,439.91c0,1.124-0.911,2.034-2.034,2.034c-1.123,0-2.034-0.911-2.034-2.034
			s0.911-2.034,2.034-2.034C255.908,437.875,256.818,438.786,256.818,439.91z"/>
		<path style="fill:#FFBF80;" d="M259.666,419.465c0,2.415-1.958,4.374-4.374,4.374c-2.415,0-4.374-1.958-4.374-4.374
			c0-2.416,1.958-4.374,4.374-4.374C257.708,415.091,259.666,417.049,259.666,419.465z"/>
		<circle style="fill:#FFBF80;" cx="241.154" cy="434.01" r="1.424"/>
		<path style="fill:#FFBF80;" d="M259.056,456.489c0,1.404-1.138,2.543-2.543,2.543c-1.404,0-2.543-1.139-2.543-2.543
			c0-1.404,1.138-2.543,2.543-2.543C257.918,453.946,259.056,455.085,259.056,456.489z"/>
	</g>
	
		<line style="fill:none;stroke:#2D1A14;stroke-width:1.0452;stroke-linejoin:round;stroke-miterlimit:10;" x1="40.477" y1="468.302" x2="256.818" y2="468.741"/>
	
		<line style="fill:none;stroke:#2D1A14;stroke-width:1.1454;stroke-linejoin:round;stroke-miterlimit:10;" x1="278.083" y1="469.115" x2="720.434" y2="468.593"/>
	<g>
		<g>
			<g>
				<path style="fill:#FF8500;" d="M348.402,314.333c-4.295,0-8.441-2.338-10.553-6.415c-3.015-5.822-0.74-12.987,5.083-16.002
					l40.294-20.867c5.822-3.015,12.987-0.74,16.002,5.083c3.015,5.823,0.74,12.987-5.083,16.002l-40.294,20.867
					C352.106,313.905,350.24,314.333,348.402,314.333z"/>
			</g>
			<path style="fill:#F9A813;" d="M457.29,360.904L457.29,360.904c-6.406,4.978-15.721,3.809-20.698-2.598l-56.508-72.729
				c-4.978-6.406-3.809-15.72,2.598-20.698l0,0c6.406-4.978,15.721-3.809,20.698,2.598l56.508,72.729
				C464.866,346.612,463.697,355.926,457.29,360.904z"/>
			<g>
				<path style="fill:#5D515D;" d="M555.62,474.069H421.785c-8.509,0-15.47-6.962-15.47-15.47v0c0-8.508,6.962-15.47,15.47-15.47
					H555.62c8.509,0,15.47,6.962,15.47,15.47v0C571.09,467.107,564.128,474.069,555.62,474.069z"/>
				<g>
					
						<path style="fill:none;stroke:#362F36;stroke-width:3.2379;stroke-linecap:round;stroke-linejoin:round;stroke-dasharray:9.5996,3.9109;" d="
						M555.62,474.069H421.785c-8.509,0-15.47-6.962-15.47-15.47v0c0-8.508,6.962-15.47,15.47-15.47H555.62
						c8.509,0,15.47,6.962,15.47,15.47v0C571.09,467.107,564.128,474.069,555.62,474.069z"/>
				</g>
				<path style="fill:#6666C6;" d="M553.83,466.12H425.562c-4.257,0-7.74-3.483-7.74-7.74v-0.426c0-4.257,3.483-7.74,7.74-7.74
					H553.83c4.257,0,7.74,3.483,7.74,7.74v0.426C561.57,462.637,558.087,466.12,553.83,466.12z"/>
				
					<path style="fill:none;stroke:#ACACFC;stroke-width:0.7195;stroke-linecap:round;stroke-linejoin:round;stroke-miterlimit:10;" d="
					M436.738,458.239c0,3.49-2.829,6.318-6.319,6.318s-6.318-2.829-6.318-6.318c0-3.49,2.829-6.319,6.318-6.319
					S436.738,454.749,436.738,458.239z"/>
				<rect x="429.34" y="326.203" style="fill:#6666C6;" width="63.32" height="105.773"/>
				<path style="fill:#5D515D;" d="M484.099,356.954c-13.319-0.211-26.931,0.543-39.717,4.558
					c-5.365,1.684-10.43,4.005-15.042,6.966v63.498h63.32v-74.753C489.808,357.095,486.954,356.999,484.099,356.954z"/>
				<path style="fill:#F9A813;" d="M498.056,331.959h-69.796c-3.364,0-6.116-2.752-6.116-6.116v0c0-3.364,2.752-6.116,6.116-6.116
					h69.796c3.364,0,6.116,2.752,6.116,6.116v0C504.172,329.207,501.42,331.959,498.056,331.959z"/>
				<path style="fill:#362F36;" d="M528.548,444.532h-95.699c-1.781,0-3.238-1.457-3.238-3.238l0,0c0-1.781,1.457-3.238,3.238-3.238
					h95.699c1.781,0,3.238,1.457,3.238,3.238l0,0C531.786,443.075,530.329,444.532,528.548,444.532z"/>
				<rect x="440.133" y="430.537" style="fill:#362F36;" width="47.49" height="10.793"/>
				<path style="fill:#F9A813;" d="M532.234,454.642H444.45c-1.781,0-3.238-1.457-3.238-3.238l0,0c0-1.781,1.457-3.238,3.238-3.238
					h87.784c1.781,0,3.238,1.457,3.238,3.238l0,0C535.472,453.185,534.015,454.642,532.234,454.642z"/>
				<path style="fill:#F9A813;" d="M573.968,434.854H419.267v-19.787c0-10.883,8.904-19.787,19.787-19.787h115.127
					c10.883,0,19.787,8.904,19.787,19.787V434.854z"/>
				<path style="fill:#5D515D;" d="M547.705,396.718h-44.612c-2.968,0-5.397-2.428-5.397-5.397l0,0c0-2.968,2.428-5.396,5.397-5.396
					h44.612c2.968,0,5.397,2.428,5.397,5.396l0,0C553.101,394.29,550.673,396.718,547.705,396.718z"/>
				
					<path style="fill:none;stroke:#362F36;stroke-width:0.7195;stroke-linecap:round;stroke-linejoin:round;stroke-miterlimit:10;" d="
					M563.894,434.134v-5.168c0-7.478-6.062-13.54-13.541-13.54h-56.19c-7.189,0-13.016,5.828-13.016,13.016v6.411"/>
				<path style="fill:#5D515D;" d="M454.884,413.268h-20.867c-1.385,0-2.518-1.133-2.518-2.518l0,0c0-1.385,1.133-2.518,2.518-2.518
					h20.867c1.385,0,2.518,1.133,2.518,2.518l0,0C457.402,412.134,456.269,413.268,454.884,413.268z"/>
				<path style="fill:#5D515D;" d="M455.244,424.78h-20.867c-1.385,0-2.518-1.133-2.518-2.518l0,0c0-1.385,1.133-2.518,2.518-2.518
					h20.867c1.385,0,2.518,1.133,2.518,2.518l0,0C457.762,423.647,456.629,424.78,455.244,424.78z"/>
				
					<line style="fill:none;stroke:#F9A813;stroke-width:2.8782;stroke-linecap:round;stroke-linejoin:round;stroke-miterlimit:10;" x1="479.257" y1="329.591" x2="479.257" y2="402.981"/>
				<g>
					<g>
						
							<line style="fill:none;stroke:#362F36;stroke-width:4.3172;stroke-linecap:round;stroke-linejoin:round;" x1="447.329" y1="460.038" x2="447.329" y2="460.038"/>
						
							<line style="fill:none;stroke:#362F36;stroke-width:4.3172;stroke-linecap:round;stroke-linejoin:round;stroke-dasharray:0,7.5879;" x1="454.917" y1="460.038" x2="527.002" y2="460.038"/>
						
							<line style="fill:none;stroke:#362F36;stroke-width:4.3172;stroke-linecap:round;stroke-linejoin:round;" x1="530.795" y1="460.038" x2="530.795" y2="460.038"/>
					</g>
				</g>
				<rect x="509.209" y="377.291" style="fill:#362F36;" width="37.416" height="9.354"/>
				<path style="fill:#362F36;" d="M537.271,372.973L537.271,372.973c-2.572,0-4.677-2.105-4.677-4.677v-7.195
					c0-2.572,2.105-4.677,4.677-4.677l0,0c2.572,0,4.677,2.105,4.677,4.677v7.195C541.948,370.869,539.844,372.973,537.271,372.973z
					"/>
				
					<path style="fill:none;stroke:#362F36;stroke-width:2.5184;stroke-linecap:round;stroke-linejoin:round;stroke-miterlimit:10;" d="
					M544.467,349.228h-0.103c-3.917,0-7.093,3.176-7.093,7.093v24.567"/>
				<path style="fill:#362F36;" d="M490.861,374.053L490.861,374.053c-4.155,0-7.555-3.4-7.555-7.555v-16.909
					c0-4.155,3.4-7.555,7.555-7.555l0,0c4.155,0,7.555,3.4,7.555,7.555v16.909C498.416,370.653,495.016,374.053,490.861,374.053z"/>
				
					<polyline style="fill:none;stroke:#362F36;stroke-width:0.7195;stroke-linecap:round;stroke-linejoin:round;stroke-miterlimit:10;" points="
					477.909,348.149 485.824,348.509 477.909,371.534 				"/>
			</g>
			<g>
				<path style="fill:#F9A813;" d="M304.566,397.847L304.566,397.847c-7.368-3.395-10.62-12.201-7.225-19.569l38.538-83.651
					c3.395-7.368,12.201-10.62,19.569-7.225l0,0c7.368,3.395,10.62,12.201,7.225,19.569l-38.538,83.651
					C320.74,397.991,311.934,401.242,304.566,397.847z"/>
				<g>
					<path style="fill:#FFC364;" d="M341.557,307.856L341.557,307.856c-2.187-4.215-0.527-9.454,3.689-11.641l0,0
						c4.216-2.187,9.454-0.527,11.641,3.689l0,0c2.187,4.215,0.527,9.454-3.688,11.641l0,0
						C348.982,313.732,343.744,312.072,341.557,307.856z"/>
					
						<path style="fill:none;stroke:#362F36;stroke-width:0.6348;stroke-linecap:round;stroke-linejoin:round;stroke-miterlimit:10;" d="
						M345.429,305.848L345.429,305.848c-1.082-2.086-0.261-4.678,1.825-5.76l0,0c2.086-1.082,4.678-0.261,5.76,1.825l0,0
						c1.082,2.086,0.261,4.678-1.825,5.76l0,0C349.103,308.755,346.511,307.933,345.429,305.848z"/>
				</g>
			</g>
			<path style="fill:#362F36;" d="M305.579,403.914l-14.55,33.647c-1.652,3.819-0.885,8.254,1.952,11.298l15.117,16.216
				l40.294-1.439L305.579,403.914z"/>
			<path style="fill:#362F36;" d="M361.278,463.635h-27.212c-1.619,0-2.944-1.324-2.944-2.944l0,0c0-1.619,1.324-2.943,2.944-2.943
				h27.212c1.619,0,2.944,1.325,2.944,2.943l0,0C364.222,462.311,362.897,463.635,361.278,463.635z"/>
			<path style="fill:#362F36;" d="M352.644,455.721h-27.212c-1.619,0-2.943-1.325-2.943-2.944l0,0c0-1.619,1.324-2.944,2.943-2.944
				h27.212c1.619,0,2.943,1.325,2.943,2.944l0,0C355.587,454.396,354.263,455.721,352.644,455.721z"/>
			<path style="fill:#362F36;" d="M344.729,447.446h-27.212c-1.619,0-2.944-1.325-2.944-2.944l0,0c0-1.619,1.325-2.943,2.944-2.943
				h27.212c1.619,0,2.944,1.325,2.944,2.943l0,0C347.672,446.121,346.348,447.446,344.729,447.446z"/>
			
				<line style="fill:none;stroke:#FFFFFF;stroke-width:0.3598;stroke-miterlimit:10;" x1="340.117" y1="463.635" x2="306.299" y2="413.987"/>
			<path style="fill:#FF8500;" d="M309.274,414.853L309.274,414.853c-3.562,0-6.476-2.914-6.476-6.475v-24.283
				c0-3.562,2.914-6.476,6.476-6.476l0,0c3.562,0,6.475,2.914,6.475,6.476v24.283C315.75,411.939,312.836,414.853,309.274,414.853z"
				/>
			<g>
				<path style="fill:#FFC364;" d="M304.668,387.879L304.668,387.879c-1.325-2.554-0.319-5.727,2.235-7.052l0,0
					c2.554-1.325,5.727-0.319,7.052,2.235v0c1.325,2.554,0.319,5.727-2.235,7.052l0,0
					C309.166,391.438,305.992,390.432,304.668,387.879z"/>
				
					<path style="fill:none;stroke:#362F36;stroke-width:0.3846;stroke-linecap:round;stroke-linejoin:round;stroke-miterlimit:10;" d="
					M307.013,386.661L307.013,386.661c-0.656-1.264-0.158-2.834,1.106-3.489l0,0c1.264-0.655,2.834-0.158,3.489,1.106l0,0
					c0.656,1.264,0.158,2.834-1.106,3.489l0,0C309.239,388.423,307.669,387.925,307.013,386.661z"/>
			</g>
			
				<line style="fill:none;stroke:#362F36;stroke-width:0.4913;stroke-linecap:round;stroke-linejoin:round;stroke-miterlimit:10;" x1="312.774" y1="374.053" x2="340.477" y2="312.892"/>
			
				<line style="fill:none;stroke:#362F36;stroke-width:0.4913;stroke-linecap:round;stroke-linejoin:round;stroke-miterlimit:10;" x1="406.675" y1="286.269" x2="432.218" y2="319.727"/>
			<rect x="436.176" y="311.453" style="fill:#FF8500;" width="51.088" height="8.634"/>
		</g>
		<g>
			<path style="fill:#FFC364;" d="M392.302,286.927L392.302,286.927c-5.371,0-9.765-4.394-9.765-9.765l0,0
				c0-5.371,4.394-9.765,9.765-9.765l0,0c5.37,0,9.765,4.394,9.765,9.765l0,0C402.066,282.532,397.672,286.927,392.302,286.927z"/>
			
				<path style="fill:none;stroke:#362F36;stroke-width:0.7179;stroke-linecap:round;stroke-linejoin:round;stroke-miterlimit:10;" d="
				M392.302,281.993L392.302,281.993c-2.657,0-4.832-2.174-4.832-4.831l0,0c0-2.657,2.174-4.831,4.832-4.831l0,0
				c2.657,0,4.831,2.174,4.831,4.831l0,0C397.133,279.819,394.959,281.993,392.302,281.993z"/>
		</g>
	</g>
	
		<line style="fill:none;stroke:#FFFAF5;stroke-width:0.8137;stroke-linecap:round;stroke-linejoin:round;stroke-miterlimit:10;" x1="222.439" y1="243.193" x2="222.439" y2="314.394"/>
	<g>
		<g>
			
				<line style="fill:none;stroke:#F3725F;stroke-width:8.1728;stroke-linecap:round;stroke-linejoin:round;stroke-miterlimit:10;" x1="132.75" y1="272.85" x2="135.815" y2="230.351"/>
			<g>
				<path style="fill:#FFBF80;" d="M114.573,269.375c0.218-0.489,0.446-0.973,0.686-1.453
					C115.033,268.406,114.803,268.89,114.573,269.375z"/>
				<path style="fill:#E0C7B3;" d="M59.517,260.26c-0.82-2.335-1.254-4.715-0.875-7.206c0.255-1.681,0.862-3.218,1.73-4.61
					c1.467-2.35,3.677-4.288,6.195-5.814c1.715-1.044,3.571-1.894,5.435-2.556c0.27-0.097,0.542-0.189,0.811-0.278
					c1.432-0.468,2.885-0.865,4.355-1.192c6.58-1.467,13.47-1.538,20.081-0.224c2.404,0.476,4.772,1.138,7.076,1.982
					c3.812,1.398,7.067,3.865,9.418,7.021c1.888,2.53,3.192,5.504,3.733,8.721c0.262,1.556,0.285,2.994,0.139,4.347
					c-0.028,0.265-0.065,0.525-0.106,0.784c-0.279,0.022-0.556,0.149-0.762,0.423c-2.291,3.043-4.031,6.448-5.275,10.044
					c-0.062,0.18-0.118,0.361-0.178,0.541c-0.112,0.073-0.209,0.168-0.28,0.29c-2.213,3.827-3.286,7.931-3.839,12.16
					c-1.159,4.461-1.833,9.029-2.253,13.627c-0.047,0.115-0.075,0.246-0.075,0.396c0,0.147,0.001,0.293,0.001,0.44
					c-0.243,2.87-0.393,5.749-0.504,8.618c-0.043,0.004-0.087,0.01-0.13,0.014c-10.504,0.977-21.132,0.589-31.537-1.146
					c-2.022-0.337-4.1-0.751-5.792-1.91c-3.732-2.552-4.351-7.779-3.557-12.295c0.048-0.274,0.1-0.544,0.159-0.809
					c1.017-4.686,3.101-9.26,2.777-14.044C65.846,271.437,61.523,265.98,59.517,260.26z"/>
				<path style="fill:#F3725F;" d="M76.115,239.27c4.331-2.366,6.849-7.657,5.956-12.51h8.656c-0.113,3.378,1.906,5.779,3.766,8.601
					c0.97,1.471,2.126,2.999,3.82,3.484c-2.446,3.277-6.682,4.916-10.77,5.019C83.455,243.968,78.724,242.419,76.115,239.27z"/>
				<path style="fill:#362F36;" d="M94.799,235.816c-2.52-0.443-5.071-1.264-6.99-2.974c-1.804-1.608-2.813-3.781-3.358-6.081h6.276
					c-0.113,3.378,1.906,5.779,3.766,8.601C94.593,235.513,94.695,235.664,94.799,235.816z"/>
				<path style="fill:#F3725F;" d="M87.256,229.721L87.256,229.721c4.096,0,7.447-3.351,7.447-7.447v-10.797
					c0-4.096-3.351-7.447-7.447-7.447l0,0c-4.096,0-7.447,3.351-7.447,7.447v10.797C79.809,226.37,83.16,229.721,87.256,229.721z"/>
				<path style="fill:#F3725F;" d="M75.487,219.518c0,1.584,1.284,2.868,2.868,2.868c1.584,0,2.868-1.284,2.868-2.868
					c0-1.584-1.284-2.868-2.868-2.868C76.771,216.65,75.487,217.934,75.487,219.518z"/>
				<path style="fill:#FFFFFF;" d="M86.227,222.092c0.169,1.541,1.411,2.748,2.947,2.762c1.536,0.014,2.8-1.171,2.996-2.708
					L86.227,222.092z"/>
				<path style="fill:#5D515D;" d="M91.486,443.69c-0.624-9.743-3.587-114.299-3.018-124.046l16.089-12.068
					c16.447,19.266,9.61,125.267,9.191,136.006L91.486,443.69z"/>
				<path style="fill:#5D515D;" d="M60.238,444.547c-0.021-12.428-5.492-105.611,6.726-138.852l20.438,10.513
					c0.17,11.078-5.369,117.537-6.7,128.531L60.238,444.547z"/>
				<path style="fill:#F3725F;" d="M85.641,217.475c-0.681-2.411-0.934-4.943-0.746-7.441c-1.437,2.876-2.051,6.159-1.75,9.36"/>
				<path style="fill:#5D515D;" d="M104.674,306.048l-37.789-1.315c0,0-4.856,19.113-5.208,29.863l24.142,6.168h3.348l22.929-8.143
					C112.096,332.62,109.774,312.185,104.674,306.048z"/>
				<path style="fill:#FFBF80;" d="M108.375,270.276l0.755,26.867c0.078,2.778-1.354,5.38-3.743,6.8l-2.651,1.576l-4.758-3.524
					l2.996-23.437L108.375,270.276z"/>
				<path style="fill:#5D515D;" d="M67.404,307.458h36.125c1.018,0,1.85-0.833,1.85-1.85l0,0c0-1.018-0.833-1.85-1.85-1.85H67.404
					c-1.018,0-1.85,0.833-1.85,1.85l0,0C65.554,306.625,66.387,307.458,67.404,307.458z"/>
				
					<path style="fill:none;stroke:#3D333D;stroke-width:1.2259;stroke-linecap:round;stroke-linejoin:round;stroke-miterlimit:10;" d="
					M93.983,337.961c0,0-7.199,5.573-14.862,0"/>
				<g>
					<path style="fill:#8A4915;" d="M107.456,442.004c-0.666,4.208,1.604,8.72,5.379,10.695c2.559,1.338,5.541,1.537,8.323,2.312
						c5.429,1.512,10.157,5.38,12.716,10.401H97.137v-23.734L107.456,442.004z"/>
				</g>
				<g>
					<path style="fill:#8A4915;" d="M66.26,442.004c0.666,4.208-1.604,8.72-5.379,10.695c-2.559,1.338-5.541,1.537-8.323,2.312
						c-5.429,1.512-10.157,5.38-12.716,10.401h36.737v-23.734L66.26,442.004z"/>
				</g>
				<path style="fill:#FFE1BD;" d="M97.528,469.084h37.88c1.341,0,2.438-1.097,2.438-2.438l0,0c0-1.341-1.097-2.438-2.438-2.438
					h-37.88c-1.341,0-2.438,1.097-2.438,2.438l0,0C95.09,467.987,96.187,469.084,97.528,469.084z"/>
				
					<line style="fill:none;stroke:#472A1C;stroke-width:1.0002;stroke-linecap:round;stroke-linejoin:round;stroke-miterlimit:10;" x1="113.467" y1="449.394" x2="105.591" y2="449.769"/>
				
					<line style="fill:none;stroke:#472A1C;stroke-width:1.0002;stroke-linecap:round;stroke-linejoin:round;stroke-miterlimit:10;" x1="114.592" y1="452.769" x2="106.716" y2="453.144"/>
				<path style="fill:#FFE1BD;" d="M76.041,467.933h-37.88c-1.341,0-2.438-1.097-2.438-2.438l0,0c0-1.341,1.097-2.438,2.438-2.438
					h37.88c1.341,0,2.438,1.097,2.438,2.438l0,0C78.479,466.836,77.382,467.933,76.041,467.933z"/>
				
					<line style="fill:none;stroke:#472A1C;stroke-width:1.0002;stroke-linecap:round;stroke-linejoin:round;stroke-miterlimit:10;" x1="60.102" y1="448.243" x2="67.978" y2="448.618"/>
				
					<line style="fill:none;stroke:#472A1C;stroke-width:1.0002;stroke-linecap:round;stroke-linejoin:round;stroke-miterlimit:10;" x1="58.977" y1="451.619" x2="66.852" y2="451.994"/>
				
					<polyline style="fill:none;stroke:#362F36;stroke-width:0.6657;stroke-linecap:round;stroke-linejoin:round;stroke-miterlimit:10;" points="
					61.198,379.382 70.984,379.382 70.984,407.806 				"/>
				
					<path style="fill:none;stroke:#362F36;stroke-width:0.6657;stroke-linecap:round;stroke-linejoin:round;stroke-miterlimit:10;" d="
					M69.662,411.118c-0.623,3.139-2.98,5.877-5.992,6.96"/>
				
					<line style="fill:none;stroke:#362F36;stroke-width:0.6657;stroke-linecap:round;stroke-linejoin:round;stroke-miterlimit:10;" x1="70.517" y1="384.707" x2="61.353" y2="384.707"/>
				
					<polyline style="fill:none;stroke:#362F36;stroke-width:0.6657;stroke-linecap:round;stroke-linejoin:round;stroke-miterlimit:10;" points="
					112.675,362.962 101.546,362.962 101.546,383.155 				"/>
				
					<path style="fill:none;stroke:#362F36;stroke-width:0.6657;stroke-linecap:round;stroke-linejoin:round;stroke-miterlimit:10;" d="
					M101.862,386.465c1.04,3.634,4.23,6.562,7.939,7.287"/>
				
					<path style="fill:none;stroke:#362F36;stroke-width:0.6657;stroke-linecap:round;stroke-linejoin:round;stroke-miterlimit:10;" d="
					M102.407,415.887c1.04,3.634,4.23,6.562,7.939,7.287"/>
				
					<polyline style="fill:none;stroke:#362F36;stroke-width:0.6657;stroke-linecap:round;stroke-linejoin:round;stroke-miterlimit:10;" points="
					110.678,401.57 101.979,401.57 101.979,409.602 				"/>
				
					<line style="fill:none;stroke:#362F36;stroke-width:0.6657;stroke-linecap:round;stroke-linejoin:round;stroke-miterlimit:10;" x1="107.456" y1="442.004" x2="97.137" y2="442.004"/>
				
					<line style="fill:none;stroke:#362F36;stroke-width:0.6657;stroke-linecap:round;stroke-linejoin:round;stroke-miterlimit:10;" x1="76.171" y1="441.822" x2="65.852" y2="441.822"/>
				<path style="fill:#362F36;" d="M74.364,225.035L74.364,225.035c3.766,0,6.848-3.082,6.848-6.848l0,0
					c0-3.766-3.082-6.848-6.848-6.848l0,0c-3.766,0-6.848,3.081-6.848,6.848l0,0C67.516,221.953,70.597,225.035,74.364,225.035z"/>
				<path style="fill:#F9A813;" d="M78.171,214.957l26.551,0.971c1.054,0.038,1.948-0.792,1.986-1.846l0,0
					c0.038-1.054-0.792-1.948-1.846-1.986l-26.551-0.971c-1.054-0.038-1.948,0.792-1.986,1.846l0,0
					C76.286,214.025,77.117,214.919,78.171,214.957z"/>
				<path style="fill:#F9A813;" d="M78.231,213.315l0.25-6.843c0.171-4.667,4.129-8.346,8.796-8.175l0,0
					c4.667,0.171,8.346,4.129,8.175,8.796l-0.25,6.843L78.231,213.315z"/>
				
					<path style="fill:none;stroke:#362F36;stroke-width:0.5478;stroke-linecap:round;stroke-linejoin:round;stroke-miterlimit:10;" d="
					M89.551,198.799c2.464,2.768,2.924,6.538,2.272,10.079"/>
				
					<path style="fill:none;stroke:#362F36;stroke-width:0.5478;stroke-linecap:round;stroke-linejoin:round;stroke-miterlimit:10;" d="
					M85.435,198.922c2.464,2.768,2.924,6.538,2.272,10.079"/>
				<path style="fill:#F3725F;" d="M79.157,225.035L79.157,225.035c1.431,0,2.602-1.171,2.602-2.602v-1.37
					c0-1.431-1.171-2.602-2.602-2.602l0,0c-1.431,0-2.602,1.171-2.602,2.602v1.37C76.555,223.864,77.726,225.035,79.157,225.035z"/>
				<path style="fill:#E0C7B3;" d="M80.663,227.226L80.663,227.226c0.904,0,1.644-0.74,1.644-1.644l0,0
					c0-0.904-0.74-1.643-1.644-1.643l0,0c-0.904,0-1.643,0.74-1.643,1.643l0,0C79.02,226.486,79.759,227.226,80.663,227.226z"/>
			</g>
			<g>
				<path style="fill:#E0C7B3;" d="M129.333,235.56l-2.883,34.856l-11.681-20.45c-1.885-2.812-7.405-2.703-10.216-0.817
					c-2.811,1.885-1.886,11.082,0,13.894l21.471,28.75c1.157,1.724,3.08,2.716,5.091,2.716c0.512,0,1.029-0.064,1.541-0.197
					c2.521-0.655,4.353-2.832,4.568-5.428l3.798-45.919C137.025,240.641,132.989,238.359,129.333,235.56z"/>
			</g>
			<path style="fill:none;" d="M133.159,278.162c0-0.136,0-0.272,0-0.409"/>
			<path style="fill:#FF6D00;" d="M88.629,307.069H64.503c-2.754-2.252-4.274-5.623-4.9-9.125
				c-0.625-3.502,0.041-7.217,1.843-10.285c-2.754-2.893-3.813-7.012-3.13-10.944c0.016-0.122,0.041-0.241,0.065-0.364
				c0.38-1.904,1.197-3.759,1.487-5.66c0.086-0.568,0.123-1.14,0.09-1.72c-0.074-1.246-0.478-2.435-0.916-3.612
				c-0.131-0.359-0.266-0.715-0.392-1.075c-0.527-1.471-1.128-3.044-1.622-4.646c-0.989-3.232-1.528-6.567-0.09-9.374
				c3.903-7.609,12.1-12.827,20.649-13.134c3.686,6.947,6.64,14.658,8.553,22.508c0.466,1.9,0.866,3.813,1.201,5.721
				c0.315,1.782,0.572,3.559,0.764,5.333c0.033,0.294,0.066,0.589,0.094,0.883c0.168,1.712,0.307,3.428,0.413,5.141
				C89.258,286.805,88.943,296.951,88.629,307.069z"/>
			<path style="fill:#FF6D00;" d="M116.502,260.182c-0.192,1.05-0.433,2.088-0.699,3.102c-0.213,0.813-0.458,1.704-0.736,2.62
				c-0.486,1.606-1.083,3.294-1.798,4.789c-0.388,0.817-0.817,1.578-1.283,2.244c0.74,1.128,1.303,2.411,1.684,3.78
				c1.406,4.969,0.507,11.062-2.44,14.985c0.164,2.942,0.323,5.925-0.31,8.802c-0.638,2.877-2.137,5.59-4.675,7.09h-9.967
				c-0.429-9.844-1.095-20.121-0.989-29.974c0.004-0.29,0.004-0.593,0.004-0.903c0.004-1.733-0.024-3.796-0.078-6.023
				c-0.037-1.54-0.078-3.155-0.123-4.789c-0.057-1.913-0.115-3.849-0.168-5.721c-0.098-3.527-0.18-6.82-0.18-9.264
				c0-4.086,0.735-8.128,3.813-12.529c7.086,0,14.711,6.261,16.951,10.514C117.307,252.324,117.221,256.32,116.502,260.182z"/>
			<g>
				<path style="fill:#F3725F;" d="M86.725,287.066c-2.135-0.687-4.112-1.791-5.817-3.247l-7.82-6.678v16.497
					c3.814,2.347,6.545,3.385,12.969,4.71l33.887,5.373l1.279-4.88L86.725,287.066z"/>
			</g>
			<path style="fill:#FFFFFF;" d="M87.341,265.359H59.043c-0.131-0.359-0.266-0.715-0.392-1.075
				c-0.527-1.471-1.128-3.044-1.622-4.646H86.14C86.606,261.538,87.007,263.451,87.341,265.359z"/>
			<path style="fill:#FFFFFF;" d="M116.502,260.182c-0.192,1.05-0.433,2.088-0.699,3.102c-0.213,0.813-0.458,1.704-0.736,2.62
				H95.094c-0.057-1.913-0.115-3.849-0.168-5.721H116.502z"/>
			<path style="fill:#FFFFFF;" d="M88.613,276.715H58.316c0.016-0.122,0.041-0.241,0.065-0.364c0.38-1.904,1.197-3.759,1.487-5.66
				h28.237c0.033,0.294,0.066,0.589,0.094,0.883C88.367,273.287,88.506,275.003,88.613,276.715z"/>
			<path style="fill:#FFFFFF;" d="M113.67,276.715H95.294c0.004-1.733-0.024-3.796-0.078-6.023h18.054
				c-0.388,0.817-0.817,1.578-1.283,2.244C112.727,274.063,113.29,275.346,113.67,276.715z"/>
			
				<path style="fill:none;stroke:#362F36;stroke-width:0.6657;stroke-linecap:round;stroke-linejoin:round;stroke-miterlimit:10;" d="
				M63.177,326.286c1.104-0.315,2.082-0.966,2.982-1.678c4.545-3.596,7.552-9.074,8.146-14.839"/>
			
				<path style="fill:none;stroke:#362F36;stroke-width:0.6657;stroke-linecap:round;stroke-linejoin:round;stroke-miterlimit:10;" d="
				M100.505,309.184c0.535,3.559,1.076,7.141,2.259,10.54c1.182,3.399,3.058,6.64,5.857,8.902"/>
			
				<line style="fill:none;stroke:#362F36;stroke-width:0.6657;stroke-linecap:round;stroke-linejoin:round;stroke-miterlimit:10;" x1="87.391" y1="335.644" x2="87.391" y2="310.853"/>
			<path style="fill:#8A8AFF;" d="M213.166,212.087h-89.234c-5.941,0-10.801-4.861-10.801-10.802V199.4
				c0-5.941,4.861-10.802,10.801-10.802h89.234c5.941,0,10.802,4.861,10.802,10.802v1.886
				C223.967,207.227,219.107,212.087,213.166,212.087z"/>
			
				<path style="fill:none;stroke:#362F36;stroke-width:0.6657;stroke-linecap:round;stroke-linejoin:round;stroke-miterlimit:10;" d="
				M90.02,329.81c1.372-1.575,2.458-3.398,3.189-5.355c1.517-4.06,1.471-8.533,1.021-12.844c-0.032-0.303-0.379-0.692-0.531-0.428"
				/>
			<path style="fill:#ACACFC;" d="M235.71,209.745v136.759h-70.137c-16.762,0-30.35-14.669-30.35-32.764l2-112.032
				c0-4.043-1.529-7.708-3.998-10.374c-1.115-1.203-2.417-2.189-3.849-2.917h86.578C226.866,188.417,235.71,197.965,235.71,209.745z
				"/>
			<path style="fill:#F3725F;" d="M132.854,223.998c0.296-1.243,0.66-2.519,1.484-3.497c0.937-1.112,2.367-1.703,3.799-1.958
				c1.432-0.254,2.897-0.21,4.349-0.274c1.577-0.069,3.149-0.268,4.694-0.592c0.387,0.596-0.176,1.351-0.738,1.787
				c-1.875,1.456-4.23,2.283-6.604,2.318c0.742,2.172,1.114,4.611,0.229,6.728c-0.643,1.538-1.944,2.787-3.506,3.369
				C130.025,234.314,131.947,227.807,132.854,223.998z"/>
			<path style="fill:#F3725F;" d="M120.12,303.771c-1.55-0.499-3.201-1.025-4.216-2.349l5.284-2.696
				c3.335-2.415,6.575-2.865,10.115-1.216c0.861,0.4,1.868,0.583,2.768,0.886c0.262,0.088,1.085,0.23,1.249,0.475
				c0.409,0.611-1.331,0.703-1.619,0.69c-0.883-0.04-1.726-0.475-2.606-0.502c-0.888-0.027-1.884,0.412-2.362,1.188
				c-0.21,0.341-0.092,0.788,0.239,1.014c1.287,0.877,2.527,1.828,3.717,2.845c0.606,0.248,1.216,0.489,1.83,0.718
				c1.271,0.474,2.573,0.915,3.7,1.67c1.127,0.755,2.08,1.886,2.282,3.228c-1.271-0.74-2.603-1.376-3.976-1.903
				c0.333,0.364,0.66,0.734,0.981,1.11c0.589,0.689,1.18,1.703,0.676,2.52C132.399,308.349,126.351,305.778,120.12,303.771z"/>
			<path style="fill:#ACACFC;" d="M139.667,316.069c-1.79,2.587-2.867,5.871-2.867,9.435v5.649c0,8.283,5.803,15.059,12.895,15.059
				h100.171c7.092,0,12.895-6.777,12.895-15.059v-5.649c0-3.565-1.077-6.849-2.867-9.435H139.667z"/>
			<g>
				<path style="fill:#E0C7B3;" d="M114.166,308.027l-34.552-10.053c-3.125-0.909-5.743-3.054-7.249-5.938l-16.848-32.263
					c-1.74-3.002-0.28-8.441,2.718-10.183l0,0c2.998-1.742,6.838-0.721,8.578,2.281l16.9,31.604l34.344,12.603L114.166,308.027z"/>
			</g>
			<path style="fill:#8A8AFF;" d="M135.391,315.506v12.398c0,10.694,7.43,19.444,16.51,19.444h0c9.08,0,16.51-8.75,16.51-19.444
				v-12.116L135.391,315.506z"/>
			<path style="fill:#362F36;" d="M87.368,220.892h-2.521c-1.139,0-2.07-0.932-2.07-2.07v-2.248c0-0.22,0.18-0.4,0.399-0.4h4.192
				c1.139,0,2.07,0.932,2.07,2.07v0.578C89.438,219.96,88.507,220.892,87.368,220.892z"/>
			<path style="fill:#362F36;" d="M92.802,220.753h1.82c1.18,0,2.145-0.965,2.145-2.145v-1.57c0-0.337-0.276-0.613-0.613-0.613
				h-3.353c-1.18,0-2.145,0.965-2.145,2.145v0.037C90.656,219.788,91.622,220.753,92.802,220.753z"/>
			<path style="fill:#362F36;" d="M96.387,216.977H83.106c-0.413,0-0.751-0.338-0.751-0.751l0,0c0-0.413,0.338-0.751,0.751-0.751
				h13.281c0.413,0,0.751,0.338,0.751,0.751l0,0C97.138,216.639,96.8,216.977,96.387,216.977z"/>
		</g>
		
			<path style="fill:none;stroke:#EEEEFF;stroke-width:2.0756;stroke-linecap:round;stroke-linejoin:round;stroke-miterlimit:10;" d="
			M156.491,207.471v100.045h24.492v-71.816C180.983,235.699,155.661,207.471,156.491,207.471z"/>
		
			<line style="fill:none;stroke:#EEEEFF;stroke-width:2.0756;stroke-linecap:round;stroke-linejoin:round;stroke-miterlimit:10;" x1="151.509" y1="197.923" x2="151.509" y2="308.955"/>
		
			<line style="fill:none;stroke:#EEEEFF;stroke-width:2.0756;stroke-linecap:round;stroke-linejoin:round;stroke-miterlimit:10;" x1="172.681" y1="214.113" x2="172.681" y2="310.836"/>
		
			<polyline style="fill:none;stroke:#FFFAF5;stroke-width:0.8302;stroke-linecap:round;stroke-linejoin:round;stroke-miterlimit:10;" points="
			171.85,300.458 152.339,287.174 173.096,288.42 151.094,273.89 172.657,274.305 150.264,260.191 172.681,260.191 150.264,246.077 
			172.681,246.077 150.679,233.208 172.657,233.208 150.679,220.339 172.681,220.339 		"/>
		
			<path style="fill:none;stroke:#FFFAF5;stroke-width:0.8302;stroke-linecap:round;stroke-linejoin:round;stroke-miterlimit:10;" d="
			M215.775,313.063c-4.072-2.227-7.808-5.133-11.545-7.624c6.299,0.121,0.262,0.173,0,0c7.057-0.415,14.529,0.415,21.563,0.415
			c-2.526-1.592-0.889-0.017,0,0c-2.526-1.592-5.052-3.184-7.578-4.776c-4.007-2.526-8.015-5.052-12.022-7.578
			c-0.931-0.587-1.862-1.174-2.793-1.76c6.548,0,13.095,0,19.643,0c0.925,0,1.849,0,2.774,0c-2.529-1.592-5.057-3.184-7.586-4.776
			c-5.283-2.696-9.85-6.432-14.831-9.338c6.548,0,0.932,0.587,0,0c7.472,0,14.944,0,22.417,0c-2.478-1.449-0.924,0,0,0
			c-7.057-4.566-14.529-8.302-22.002-12.869c6.416,0,0.906,0.53,0,0c7.472,0,14.529,0,21.978,0c-2.471-1.447-0.91,0,0,0
			c-7.449-4.151-14.506-8.718-21.978-12.869c6.43,0,0.912,0.534,0,0c7.472,0,14.529,0,22.002,0"/>
		
			<line style="fill:none;stroke:#FFFAF5;stroke-width:0.8302;stroke-linecap:round;stroke-linejoin:round;stroke-miterlimit:10;" x1="164.378" y1="198.338" x2="211.702" y2="198.338"/>
		
			<line style="fill:none;stroke:#FFFAF5;stroke-width:0.8302;stroke-linecap:round;stroke-linejoin:round;stroke-miterlimit:10;" x1="188.455" y1="312.497" x2="188.455" y2="198.339"/>
		
			<circle style="fill:none;stroke:#FFFAF5;stroke-width:0.8302;stroke-linecap:round;stroke-linejoin:round;stroke-miterlimit:10;" cx="178.077" cy="211.207" r="1.661"/>
		
			<circle style="fill:none;stroke:#FFFAF5;stroke-width:0.8302;stroke-linecap:round;stroke-linejoin:round;stroke-miterlimit:10;" cx="211.495" cy="240.473" r="1.038"/>
		
			<path style="fill:none;stroke:#FFFAF5;stroke-width:0.8302;stroke-linecap:round;stroke-linejoin:round;stroke-miterlimit:10;" d="
			M145.698,268.701c0,0.802-0.65,1.453-1.453,1.453c-0.802,0-1.453-0.651-1.453-1.453c0-0.802,0.65-1.453,1.453-1.453
			C145.047,267.248,145.698,267.899,145.698,268.701z"/>
		
			<circle style="fill:none;stroke:#FFFAF5;stroke-width:0.8302;stroke-linecap:round;stroke-linejoin:round;stroke-miterlimit:10;" cx="196.55" cy="299.42" r="1.038"/>
		
			<polygon style="fill:none;stroke:#FFFAF5;stroke-width:0.8302;stroke-linecap:round;stroke-linejoin:round;stroke-miterlimit:10;" points="
			211.287,246.492 200.079,259.361 200.079,310.421 221.665,310.421 221.665,259.905 		"/>
		<g>
			
				<line style="fill:none;stroke:#FFFAF5;stroke-width:0.8302;stroke-linecap:round;stroke-linejoin:round;stroke-miterlimit:10;" x1="193.022" y1="207.471" x2="208.796" y2="207.471"/>
			
				<line style="fill:none;stroke:#FFFAF5;stroke-width:0.8302;stroke-linecap:round;stroke-linejoin:round;stroke-miterlimit:10;" x1="193.022" y1="212.037" x2="208.796" y2="212.037"/>
			
				<line style="fill:none;stroke:#FFFAF5;stroke-width:0.8302;stroke-linecap:round;stroke-linejoin:round;stroke-miterlimit:10;" x1="193.022" y1="216.603" x2="208.796" y2="216.603"/>
			
				<line style="fill:none;stroke:#FFFAF5;stroke-width:0.8302;stroke-linecap:round;stroke-linejoin:round;stroke-miterlimit:10;" x1="193.022" y1="221.17" x2="208.796" y2="221.17"/>
		</g>
		<g>
			
				<line style="fill:none;stroke:#FFFAF5;stroke-width:0.8302;stroke-linecap:round;stroke-linejoin:round;stroke-miterlimit:10;" x1="212.532" y1="207.471" x2="228.307" y2="207.471"/>
			
				<line style="fill:none;stroke:#FFFAF5;stroke-width:0.8302;stroke-linecap:round;stroke-linejoin:round;stroke-miterlimit:10;" x1="212.532" y1="212.037" x2="228.307" y2="212.037"/>
			
				<line style="fill:none;stroke:#FFFAF5;stroke-width:0.8302;stroke-linecap:round;stroke-linejoin:round;stroke-miterlimit:10;" x1="212.532" y1="216.603" x2="228.307" y2="216.603"/>
			
				<line style="fill:none;stroke:#FFFAF5;stroke-width:0.8302;stroke-linecap:round;stroke-linejoin:round;stroke-miterlimit:10;" x1="212.532" y1="221.17" x2="228.307" y2="221.17"/>
		</g>
	</g>
	<g>
		<path style="fill:#CFCFFF;" d="M186.465,122.834c-9.054,0-17.296,3.476-23.465,9.166c-6.247-9.023-16.664-14.936-28.47-14.936
			c-7.19,0-13.863,2.199-19.396,5.951c-5.808-10.974-17.336-18.454-30.616-18.454c-16.156,0-29.726,11.066-33.547,26.031
			c-0.675-0.039-1.353-0.064-2.038-0.064c-13.208,0-24.686,7.398-30.523,18.273h32.849h28.197h20.579h17.742h35.155h16.092h50.973
			C216.154,133.869,202.598,122.834,186.465,122.834z"/>
		<path style="fill:#CFCFFF;" d="M293.243,72.206c-5.995,0-11.452,2.302-15.537,6.069c-4.136-5.974-11.034-9.89-18.851-9.89
			c-4.761,0-9.179,1.456-12.843,3.941c-3.846-7.266-11.479-12.219-20.272-12.219c-10.697,0-19.683,7.327-22.213,17.236
			c-0.447-0.026-0.896-0.042-1.349-0.042c-8.745,0-16.345,4.898-20.211,12.1h21.751h18.671h13.626h11.748h23.277h10.655h33.752
			C312.902,79.513,303.926,72.206,293.243,72.206z"/>
	</g>
	<g>
		<path style="fill:#CFCFFF;" d="M710.936,359.089c-0.414,0-0.824,0.015-1.232,0.039c-2.31-9.045-10.512-15.734-20.277-15.734
			c-8.027,0-14.994,4.521-18.505,11.154c-3.344-2.268-7.377-3.597-11.723-3.597c-7.136,0-13.432,3.574-17.208,9.028
			c-3.729-3.439-8.71-5.54-14.183-5.54c-9.751,0-17.945,6.669-20.268,15.695h30.809h9.726h21.248h10.724h12.438h17.043h19.855
			C725.856,363.56,718.919,359.089,710.936,359.089z"/>
		<path style="fill:#CFCFFF;" d="M655.38,187.047h26.782h13.517h15.678h21.482h25.026c-4.448-8.286-13.192-13.921-23.254-13.921
			c-0.521,0-1.039,0.019-1.552,0.048c-2.911-11.401-13.25-19.832-25.558-19.832c-10.118,0-18.9,5.699-23.325,14.059
			c-4.215-2.859-9.299-4.534-14.776-4.534c-8.994,0-16.931,4.505-21.69,11.379c-4.7-4.335-10.979-6.983-17.877-6.983
			c-12.291,0-22.619,8.407-25.547,19.783h38.834H655.38z"/>
	</g>
</g>
</svg>
